MozillaHeadline-ExtraLightItalic.ufo
<glyph name="exclam" format="1">
  <advance width="261"/>
  <unicode hex="0021"/>
  <outline>
    <contour>
      <point x="96" y="169" type="line"/>
      <point x="133" y="169" type="line"/>
      <point x="227" y="637" type="line"/>
      <point x="236" y="690" type="line"/>
      <point x="168" y="690" type="line"/>
      <point x="159" y="637" type="line"/>
    </contour>
    <contour>
      <point x="45" y="0" type="line"/>
      <point x="127" y="0" type="line"/>
      <point x="141" y="80" type="line"/>
      <point x="58" y="80" type="line"/>
    </contour>
  </outline>
</glyph>
<glyph name="dollar" format="1">
  <advance width="616"/>
  <unicode hex="0024"/>
  <outline>
    <contour>
      <point x="297" y="-5" type="curve" smooth="yes"/>
      <point x="435" y="-5"/>
      <point x="523" y="50"/>
      <point x="541" y="162" type="curve" smooth="yes"/>
      <point x="557" y="262"/>
      <point x="514" y="322"/>
      <point x="396" y="358" type="curve" smooth="yes"/>
      <point x="282" y="388" type="line" smooth="yes"/>
      <point x="185" y="416"/>
      <point x="155" y="453"/>
      <point x="166" y="518" type="curve" smooth="yes"/>
      <point x="167" y="526" type="line" smooth="yes"/>
      <point x="180" y="601"/>
      <point x="240" y="639"/>
      <point x="354" y="639" type="curve" smooth="yes"/>
      <point x="482" y="639"/>
      <point x="543" y="573"/>
      <point x="526" y="467" type="curve" smooth="yes"/>
      <point x="524" y="459" type="line"/>
      <point x="588" y="459" type="line"/>
      <point x="592" y="628"/>
      <point x="513" y="695"/>
      <point x="346" y="695" type="curve" smooth="yes"/>
      <point x="210" y="695"/>
      <point x="122" y="639"/>
      <point x="103" y="528" type="curve" smooth="yes"/>
      <point x="87" y="428"/>
      <point x="129" y="367"/>
      <point x="247" y="332" type="curve" smooth="yes"/>
      <point x="360" y="302" type="line" smooth="yes"/>
      <point x="459" y="273"/>
      <point x="490" y="238"/>
      <point x="479" y="172" type="curve" smooth="yes"/>
      <point x="477" y="164" type="line" smooth="yes"/>
      <point x="464" y="89"/>
      <point x="404" y="51"/>
      <point x="288" y="51" type="curve" smooth="yes"/>
      <point x="160" y="51"/>
      <point x="96" y="115"/>
      <point x="114" y="223" type="curve" smooth="yes"/>
      <point x="116" y="231" type="line"/>
      <point x="51" y="231" type="line"/>
      <point x="47" y="63"/>
      <point x="126" y="-5"/>
    </contour>
    <contour>
      <point x="222" y="-92" type="line"/>
      <point x="276" y="-92" type="line"/>
      <point x="295" y="24" type="line"/>
      <point x="241" y="24" type="line"/>
    </contour>
    <contour>
      <point x="345" y="660" type="line"/>
      <point x="400" y="660" type="line"/>
      <point x="420" y="782" type="line"/>
      <point x="365" y="782" type="line"/>
    </contour>
  </outline>
</glyph>
<glyph name="ampersand" format="1">
  <advance width="685"/>
  <unicode hex="0026"/>
  <outline>
    <contour>
      <point x="233" y="428" type="curve" smooth="yes"/>
      <point x="487" y="0" type="line"/>
      <point x="601" y="0" type="line"/>
      <point x="610" y="53" type="line"/>
      <point x="529" y="53" type="line"/>
      <point x="286" y="457" type="line" smooth="yes"/>
      <point x="250" y="509"/>
      <point x="241" y="536"/>
      <point x="247" y="567" type="curve" smooth="yes"/>
      <point x="254" y="613"/>
      <point x="287" y="637"/>
      <point x="341" y="637" type="curve" smooth="yes"/>
      <point x="522" y="637" type="line"/>
      <point x="498" y="494" type="line"/>
      <point x="553" y="494" type="line"/>
      <point x="586" y="690" type="line"/>
      <point x="342" y="690" type="line" smooth="yes"/>
      <point x="251" y="690"/>
      <point x="199" y="655"/>
      <point x="187" y="575" type="curve" smooth="yes"/>
      <point x="178" y="528"/>
      <point x="194" y="483"/>
    </contour>
    <contour>
      <point x="241" y="-10" type="curve" smooth="yes"/>
      <point x="321" y="-10"/>
      <point x="386" y="21"/>
      <point x="418" y="71" type="curve"/>
      <point x="458" y="71" type="line"/>
      <point x="443" y="112" type="line"/>
      <point x="385" y="69"/>
      <point x="314" y="45"/>
      <point x="242" y="45" type="curve" smooth="yes"/>
      <point x="146" y="45"/>
      <point x="97" y="96"/>
      <point x="113" y="188" type="curve" smooth="yes"/>
      <point x="116" y="206" type="line" smooth="yes"/>
      <point x="130" y="289"/>
      <point x="182" y="331"/>
      <point x="284" y="335" type="curve"/>
      <point x="273" y="380" type="line"/>
      <point x="146" y="377"/>
      <point x="68" y="314"/>
      <point x="49" y="202" type="curve" smooth="yes"/>
      <point x="25" y="55"/>
      <point x="116" y="-10"/>
    </contour>
    <contour>
      <point x="485" y="118" type="line"/>
      <point x="542" y="149"/>
      <point x="555" y="218"/>
      <point x="567" y="286" type="curve" smooth="yes"/>
      <point x="582" y="376" type="line"/>
      <point x="526" y="376" type="line"/>
      <point x="488" y="154" type="line"/>
      <point x="450" y="154" type="line"/>
    </contour>
  </outline>
</glyph>
<glyph name="quotesingle" format="1">
  <advance width="212"/>
  <unicode hex="0027"/>
  <outline>
    <contour>
      <point x="131" y="512" type="line"/>
      <point x="163" y="512" type="line"/>
      <point x="203" y="653" type="line"/>
      <point x="209" y="690" type="line"/>
      <point x="145" y="690" type="line"/>
      <point x="138" y="653" type="line"/>
    </contour>
  </outline>
</glyph>
<glyph name="parenright" format="1">
  <advance width="306"/>
  <unicode hex="0029"/>
  <outline>
    <contour>
      <point x="141" y="782" type="curve"/>
      <point x="80" y="782" type="line"/>
      <point x="180" y="645"/>
      <point x="201" y="539"/>
      <point x="175" y="371" type="curve" smooth="yes"/>
      <point x="167" y="319" type="line" smooth="yes"/>
      <point x="141" y="151"/>
      <point x="79" y="45"/>
      <point x="-66" y="-92" type="curve"/>
      <point x="2" y="-92" type="line"/>
      <point x="130" y="19"/>
      <point x="201" y="148"/>
      <point x="232" y="339" type="curve" smooth="yes"/>
      <point x="263" y="529"/>
      <point x="237" y="664"/>
    </contour>
  </outline>
</glyph>
<glyph name="plus" format="1">
  <advance width="474"/>
  <unicode hex="002B"/>
  <outline>
    <contour>
      <point x="188" y="135" type="line"/>
      <point x="242" y="135" type="line"/>
      <point x="310" y="539" type="line"/>
      <point x="256" y="539" type="line"/>
    </contour>
    <contour>
      <point x="47" y="312" type="line"/>
      <point x="442" y="312" type="line"/>
      <point x="451" y="362" type="line"/>
      <point x="56" y="362" type="line"/>
    </contour>
  </outline>
</glyph>
<glyph name="one" format="1">
  <advance width="464"/>
  <unicode hex="0031"/>
  <outline>
    <contour>
      <point x="4" y="0" type="line"/>
      <point x="397" y="0" type="line"/>
      <point x="406" y="53" type="line"/>
      <point x="241" y="53" type="line"/>
      <point x="348" y="690" type="line"/>
      <point x="310" y="690" type="line"/>
      <point x="107" y="595" type="line"/>
      <point x="97" y="538" type="line"/>
      <point x="273" y="620" type="line"/>
      <point x="178" y="53" type="line"/>
      <point x="13" y="53" type="line"/>
    </contour>
  </outline>
</glyph>
<glyph name="two" format="1">
  <advance width="614"/>
  <unicode hex="0032"/>
  <outline>
    <contour>
      <point x="45" y="134" type="curve" smooth="yes"/>
      <point x="22" y="0" type="line"/>
      <point x="494" y="0" type="line"/>
      <point x="528" y="200" type="line"/>
      <point x="472" y="200" type="line"/>
      <point x="447" y="53" type="line"/>
      <point x="60" y="53" type="line"/>
      <point x="90" y="29" type="line"/>
      <point x="106" y="127" type="line" smooth="yes"/>
      <point x="122" y="221"/>
      <point x="165" y="264"/>
      <point x="265" y="287" type="curve" smooth="yes"/>
      <point x="389" y="315" type="line" smooth="yes"/>
      <point x="511" y="345"/>
      <point x="568" y="392"/>
      <point x="583" y="482" type="curve" smooth="yes"/>
      <point x="585" y="493" type="line" smooth="yes"/>
      <point x="608" y="629"/>
      <point x="496" y="700"/>
      <point x="365" y="700" type="curve" smooth="yes"/>
      <point x="222" y="700"/>
      <point x="140" y="629"/>
      <point x="100" y="459" type="curve"/>
      <point x="165" y="459" type="line"/>
      <point x="167" y="467" type="line" smooth="yes"/>
      <point x="186" y="583"/>
      <point x="245" y="643"/>
      <point x="362" y="643" type="curve" smooth="yes"/>
      <point x="469" y="643"/>
      <point x="538" y="587"/>
      <point x="523" y="504" type="curve" smooth="yes"/>
      <point x="520" y="484" type="line" smooth="yes"/>
      <point x="510" y="427"/>
      <point x="469" y="393"/>
      <point x="370" y="371" type="curve" smooth="yes"/>
      <point x="247" y="342" type="line" smooth="yes"/>
      <point x="125" y="313"/>
      <point x="65" y="256"/>
    </contour>
  </outline>
</glyph>
<glyph name="three" format="1">
  <advance width="612"/>
  <unicode hex="0033"/>
  <outline>
    <contour>
      <point x="281" y="-10" type="curve" smooth="yes"/>
      <point x="416" y="-10"/>
      <point x="508" y="54"/>
      <point x="529" y="176" type="curve" smooth="yes"/>
      <point x="544" y="265"/>
      <point x="509" y="327"/>
      <point x="444" y="338" type="curve"/>
      <point x="448" y="359" type="line"/>
      <point x="521" y="370"/>
      <point x="565" y="409"/>
      <point x="579" y="493" type="curve" smooth="yes"/>
      <point x="602" y="638"/>
      <point x="487" y="700"/>
      <point x="353" y="700" type="curve" smooth="yes"/>
      <point x="213" y="700"/>
      <point x="132" y="630"/>
      <point x="91" y="459" type="curve"/>
      <point x="155" y="459" type="line"/>
      <point x="157" y="472" type="line" smooth="yes"/>
      <point x="177" y="586"/>
      <point x="235" y="644"/>
      <point x="352" y="644" type="curve" smooth="yes"/>
      <point x="460" y="644"/>
      <point x="529" y="591"/>
      <point x="516" y="511" type="curve" smooth="yes"/>
      <point x="513" y="492" type="line" smooth="yes"/>
      <point x="500" y="414"/>
      <point x="460" y="377"/>
      <point x="385" y="377" type="curve" smooth="yes"/>
      <point x="230" y="377" type="line"/>
      <point x="221" y="327" type="line"/>
      <point x="356" y="327" type="line" smooth="yes"/>
      <point x="437" y="327"/>
      <point x="480" y="278"/>
      <point x="466" y="193" type="curve" smooth="yes"/>
      <point x="462" y="170" type="line" smooth="yes"/>
      <point x="448" y="90"/>
      <point x="387" y="46"/>
      <point x="276" y="46" type="curve" smooth="yes"/>
      <point x="158" y="46"/>
      <point x="96" y="107"/>
      <point x="115" y="220" type="curve" smooth="yes"/>
      <point x="117" y="231" type="line"/>
      <point x="53" y="231" type="line"/>
      <point x="46" y="65"/>
      <point x="116" y="-10"/>
    </contour>
  </outline>
</glyph>
<glyph name="four" format="1">
  <advance width="584"/>
  <unicode hex="0034"/>
  <outline>
    <contour>
      <point x="35" y="187" type="line"/>
      <point x="537" y="187" type="line"/>
      <point x="546" y="239" type="line"/>
      <point x="111" y="239" type="line"/>
      <point x="392" y="690" type="line"/>
      <point x="325" y="690" type="line"/>
      <point x="44" y="239" type="line"/>
    </contour>
    <contour>
      <point x="313" y="0" type="line"/>
      <point x="377" y="0" type="line"/>
      <point x="447" y="419" type="line"/>
      <point x="409" y="419" type="line"/>
      <point x="366" y="312" type="line"/>
    </contour>
  </outline>
</glyph>
<glyph name="five" format="1">
  <advance width="629"/>
  <unicode hex="0035"/>
  <outline>
    <contour>
      <point x="296" y="-10" type="curve" smooth="yes"/>
      <point x="438" y="-10"/>
      <point x="528" y="62"/>
      <point x="553" y="208" type="curve" smooth="yes"/>
      <point x="580" y="373"/>
      <point x="482" y="450"/>
      <point x="349" y="450" type="curve" smooth="yes"/>
      <point x="271" y="450"/>
      <point x="201" y="418"/>
      <point x="175" y="370" type="curve"/>
      <point x="154" y="370" type="line"/>
      <point x="171" y="433"/>
      <point x="180" y="465"/>
      <point x="185" y="497" type="curve" smooth="yes"/>
      <point x="208" y="637" type="line"/>
      <point x="555" y="637" type="line"/>
      <point x="531" y="494" type="line"/>
      <point x="586" y="494" type="line"/>
      <point x="619" y="690" type="line"/>
      <point x="155" y="690" type="line"/>
      <point x="93" y="323" type="line"/>
      <point x="157" y="323" type="line"/>
      <point x="194" y="363"/>
      <point x="248" y="396"/>
      <point x="328" y="396" type="curve" smooth="yes"/>
      <point x="446" y="396"/>
      <point x="508" y="338"/>
      <point x="489" y="223" type="curve" smooth="yes"/>
      <point x="487" y="211" type="line" smooth="yes"/>
      <point x="468" y="99"/>
      <point x="413" y="46"/>
      <point x="295" y="46" type="curve" smooth="yes"/>
      <point x="177" y="46"/>
      <point x="115" y="107"/>
      <point x="134" y="218" type="curve" smooth="yes"/>
      <point x="136" y="231" type="line"/>
      <point x="71" y="231" type="line"/>
      <point x="65" y="62"/>
      <point x="137" y="-10"/>
    </contour>
  </outline>
</glyph>
<glyph name="seven" format="1">
  <advance width="546"/>
  <unicode hex="0037"/>
  <outline>
    <contour>
      <point x="109" y="0" type="line"/>
      <point x="182" y="0" type="line"/>
      <point x="571" y="637" type="line"/>
      <point x="580" y="690" type="line"/>
      <point x="118" y="690" type="line"/>
      <point x="85" y="494" type="line"/>
      <point x="141" y="494" type="line"/>
      <point x="165" y="637" type="line"/>
      <point x="499" y="637" type="line"/>
    </contour>
  </outline>
</glyph>
<glyph name="greater" format="1">
  <advance width="474"/>
  <unicode hex="003E"/>
  <outline>
    <contour>
      <point x="22" y="131" type="line"/>
      <point x="444" y="299" type="line"/>
      <point x="457" y="375" type="line"/>
      <point x="90" y="543" type="line"/>
      <point x="82" y="490" type="line"/>
      <point x="397" y="351" type="line"/>
      <point x="393" y="329" type="line"/>
      <point x="31" y="189" type="line"/>
    </contour>
  </outline>
</glyph>
<glyph name="A" format="1">
  <advance width="632"/>
  <unicode hex="0041"/>
  <outline>
    <contour>
      <point x="-7" y="0" type="line"/>
      <point x="62" y="0" type="line"/>
      <point x="371" y="633" type="line"/>
      <point x="393" y="633" type="line"/>
      <point x="489" y="0" type="line"/>
      <point x="554" y="0" type="line"/>
      <point x="447" y="690" type="line"/>
      <point x="332" y="690" type="line"/>
    </contour>
    <contour>
      <point x="123" y="188" type="line"/>
      <point x="487" y="188" type="line"/>
      <point x="481" y="238" type="line"/>
      <point x="145" y="238" type="line"/>
    </contour>
    <contour>
      <point x="214" y="637" type="line"/>
      <point x="349" y="637" type="line"/>
      <point x="358" y="690" type="line"/>
      <point x="223" y="690" type="line"/>
    </contour>
    <contour>
      <point x="554" y="0" type="move" name="ogonek"/>
    </contour>
    <contour>
      <point x="386" y="690" type="move" name="top"/>
    </contour>
  </outline>
</glyph>
<glyph name="D" format="1">
  <advance width="687"/>
  <unicode hex="0044"/>
  <outline>
    <contour>
      <point x="64" y="0" type="line"/>
      <point x="317" y="0" type="line" smooth="yes"/>
      <point x="503" y="0"/>
      <point x="596" y="89"/>
      <point x="636" y="330" type="curve" smooth="yes"/>
      <point x="676" y="571"/>
      <point x="590" y="690"/>
      <point x="404" y="690" type="curve" smooth="yes"/>
      <point x="89" y="690" type="line"/>
      <point x="80" y="637" type="line"/>
      <point x="171" y="637" type="line"/>
    </contour>
    <contour>
      <point x="318" y="53" type="curve" smooth="yes"/>
      <point x="137" y="53" type="line"/>
      <point x="235" y="637" type="line"/>
      <point x="392" y="637" type="line" smooth="yes"/>
      <point x="538" y="637"/>
      <point x="607" y="561"/>
      <point x="578" y="389" type="curve" smooth="yes"/>
      <point x="562" y="296" type="line" smooth="yes"/>
      <point x="533" y="124"/>
      <point x="465" y="53"/>
    </contour>
  </outline>
</glyph>
<glyph name="F" format="1">
  <advance width="586"/>
  <unicode hex="0046"/>
  <outline>
    <contour>
      <point x="63" y="0" type="line"/>
      <point x="127" y="0" type="line"/>
      <point x="182" y="327" type="line"/>
      <point x="451" y="327" type="line"/>
      <point x="460" y="377" type="line"/>
      <point x="191" y="377" type="line"/>
      <point x="234" y="637" type="line"/>
      <point x="545" y="637" type="line"/>
      <point x="521" y="494" type="line"/>
      <point x="577" y="494" type="line"/>
      <point x="610" y="690" type="line"/>
      <point x="88" y="690" type="line"/>
      <point x="79" y="637" type="line"/>
      <point x="170" y="637" type="line"/>
    </contour>
  </outline>
</glyph>
<glyph name="G" format="1">
  <advance width="692"/>
  <unicode hex="0047"/>
  <outline>
    <contour>
      <point x="297" y="-10" type="curve" smooth="yes"/>
      <point x="394" y="-10"/>
      <point x="470" y="30"/>
      <point x="517" y="111" type="curve"/>
      <point x="538" y="111" type="line"/>
      <point x="519" y="0" type="line"/>
      <point x="569" y="0" type="line"/>
      <point x="628" y="349" type="line"/>
      <point x="358" y="349" type="line"/>
      <point x="349" y="298" type="line"/>
      <point x="578" y="298" type="line"/>
      <point x="560" y="309" type="line"/>
      <point x="552" y="264" type="line" smooth="yes"/>
      <point x="528" y="127"/>
      <point x="460" y="47"/>
      <point x="316" y="47" type="curve" smooth="yes"/>
      <point x="171" y="47"/>
      <point x="105" y="130"/>
      <point x="134" y="301" type="curve" smooth="yes"/>
      <point x="150" y="394" type="line" smooth="yes"/>
      <point x="179" y="566"/>
      <point x="246" y="643"/>
      <point x="390" y="643" type="curve" smooth="yes"/>
      <point x="533" y="643"/>
      <point x="586" y="562"/>
      <point x="573" y="480" type="curve" smooth="yes"/>
      <point x="572" y="477" type="line"/>
      <point x="637" y="477" type="line"/>
      <point x="627" y="624"/>
      <point x="540" y="700"/>
      <point x="393" y="700" type="curve" smooth="yes"/>
      <point x="227" y="700"/>
      <point x="115" y="593"/>
      <point x="76" y="361" type="curve" smooth="yes"/>
      <point x="36" y="119"/>
      <point x="123" y="-10"/>
    </contour>
  </outline>
</glyph>
<glyph name="H" format="1">
  <advance width="679"/>
  <unicode hex="0048"/>
  <outline>
    <contour>
      <point x="469" y="0" type="line"/>
      <point x="533" y="0" type="line"/>
      <point x="649" y="690" type="line"/>
      <point x="585" y="690" type="line"/>
    </contour>
    <contour>
      <point x="64" y="0" type="line"/>
      <point x="128" y="0" type="line"/>
      <point x="244" y="690" type="line"/>
      <point x="89" y="690" type="line"/>
      <point x="80" y="637" type="line"/>
      <point x="171" y="637" type="line"/>
    </contour>
    <contour>
      <point x="150" y="327" type="line"/>
      <point x="556" y="327" type="line"/>
      <point x="564" y="377" type="line"/>
      <point x="159" y="377" type="line"/>
    </contour>
  </outline>
</glyph>
<glyph name="J" format="1">
  <advance width="589"/>
  <unicode hex="004A"/>
  <outline>
    <contour>
      <point x="242" y="-10" type="curve" smooth="yes"/>
      <point x="384" y="-10"/>
      <point x="462" y="70"/>
      <point x="494" y="261" type="curve" smooth="yes"/>
      <point x="566" y="690" type="line"/>
      <point x="243" y="690" type="line"/>
      <point x="234" y="637" type="line"/>
      <point x="494" y="637" type="line"/>
      <point x="427" y="244" type="line" smooth="yes"/>
      <point x="403" y="101"/>
      <point x="359" y="47"/>
      <point x="241" y="47" type="curve" smooth="yes"/>
      <point x="123" y="47"/>
      <point x="76" y="107"/>
      <point x="99" y="248" type="curve" smooth="yes"/>
      <point x="106" y="285" type="line"/>
      <point x="42" y="285" type="line"/>
      <point x="41" y="277" type="line" smooth="yes"/>
      <point x="6" y="65"/>
      <point x="90" y="-10"/>
    </contour>
    <contour>
      <point x="420" y="690" type="move" name="top"/>
    </contour>
  </outline>
</glyph>
<glyph name="Q" format="1">
  <advance width="691"/>
  <unicode hex="0051"/>
  <outline>
    <contour>
      <point x="295" y="-132" type="curve" smooth="yes"/>
      <point x="491" y="-132" type="line"/>
      <point x="500" y="-81" type="line"/>
      <point x="318" y="-81" type="line"/>
      <point x="330" y="-10" type="line"/>
      <point x="494" y="-5"/>
      <point x="604" y="105"/>
      <point x="642" y="329" type="curve" smooth="yes"/>
      <point x="683" y="574"/>
      <point x="590" y="700"/>
      <point x="397" y="700" type="curve" smooth="yes"/>
      <point x="228" y="700"/>
      <point x="114" y="593"/>
      <point x="76" y="362" type="curve" smooth="yes"/>
      <point x="35" y="116"/>
      <point x="127" y="-10"/>
      <point x="320" y="-10" type="curve"/>
      <point x="275" y="24" type="line"/>
      <point x="256" y="-85" type="line" smooth="yes"/>
      <point x="251" y="-116"/>
      <point x="264" y="-132"/>
    </contour>
    <contour>
      <point x="321" y="47" type="curve" smooth="yes"/>
      <point x="173" y="47"/>
      <point x="105" y="130"/>
      <point x="134" y="303" type="curve" smooth="yes"/>
      <point x="149" y="393" type="line" smooth="yes"/>
      <point x="178" y="565"/>
      <point x="248" y="643"/>
      <point x="396" y="643" type="curve" smooth="yes"/>
      <point x="544" y="643"/>
      <point x="612" y="560"/>
      <point x="583" y="388" type="curve" smooth="yes"/>
      <point x="568" y="297" type="line" smooth="yes"/>
      <point x="539" y="125"/>
      <point x="469" y="47"/>
    </contour>
    <contour>
      <point x="417" y="690" type="move" name="top"/>
    </contour>
  </outline>
</glyph>
<glyph name="R" format="1">
  <advance width="655"/>
  <unicode hex="0052"/>
  <outline>
    <contour>
      <point x="64" y="0" type="line"/>
      <point x="128" y="0" type="line"/>
      <point x="182" y="320" type="line"/>
      <point x="363" y="320" type="line" smooth="yes"/>
      <point x="441" y="320"/>
      <point x="482" y="275"/>
      <point x="469" y="194" type="curve" smooth="yes"/>
      <point x="436" y="0" type="line"/>
      <point x="588" y="0" type="line"/>
      <point x="597" y="53" type="line"/>
      <point x="509" y="53" type="line"/>
      <point x="530" y="180" type="line" smooth="yes"/>
      <point x="544" y="263"/>
      <point x="520" y="320"/>
      <point x="460" y="329" type="curve"/>
      <point x="463" y="351" type="line"/>
      <point x="545" y="362"/>
      <point x="590" y="400"/>
      <point x="605" y="491" type="curve" smooth="yes"/>
      <point x="624" y="610"/>
      <point x="562" y="690"/>
      <point x="449" y="690" type="curve" smooth="yes"/>
      <point x="89" y="690" type="line"/>
      <point x="80" y="637" type="line"/>
      <point x="171" y="637" type="line"/>
    </contour>
    <contour>
      <point x="409" y="370" type="curve" smooth="yes"/>
      <point x="190" y="370" type="line"/>
      <point x="235" y="637" type="line"/>
      <point x="437" y="637" type="line" smooth="yes"/>
      <point x="515" y="637"/>
      <point x="556" y="593"/>
      <point x="543" y="516" type="curve" smooth="yes"/>
      <point x="538" y="485" type="line" smooth="yes"/>
      <point x="525" y="410"/>
      <point x="487" y="370"/>
    </contour>
  </outline>
</glyph>
<glyph name="S" format="1">
  <advance width="621"/>
  <unicode hex="0053"/>
  <outline>
    <contour>
      <point x="296" y="-10" type="curve" smooth="yes"/>
      <point x="436" y="-10"/>
      <point x="524" y="47"/>
      <point x="544" y="162" type="curve" smooth="yes"/>
      <point x="560" y="262"/>
      <point x="517" y="322"/>
      <point x="398" y="358" type="curve" smooth="yes"/>
      <point x="284" y="388" type="line" smooth="yes"/>
      <point x="188" y="416"/>
      <point x="158" y="453"/>
      <point x="168" y="518" type="curve" smooth="yes"/>
      <point x="170" y="526" type="line" smooth="yes"/>
      <point x="183" y="603"/>
      <point x="243" y="643"/>
      <point x="357" y="643" type="curve" smooth="yes"/>
      <point x="486" y="643"/>
      <point x="546" y="575"/>
      <point x="528" y="467" type="curve" smooth="yes"/>
      <point x="527" y="459" type="line"/>
      <point x="591" y="459" type="line"/>
      <point x="596" y="629"/>
      <point x="520" y="700"/>
      <point x="354" y="700" type="curve" smooth="yes"/>
      <point x="215" y="700"/>
      <point x="125" y="642"/>
      <point x="106" y="528" type="curve" smooth="yes"/>
      <point x="90" y="428"/>
      <point x="132" y="367"/>
      <point x="249" y="332" type="curve" smooth="yes"/>
      <point x="363" y="302" type="line" smooth="yes"/>
      <point x="461" y="273"/>
      <point x="493" y="238"/>
      <point x="482" y="172" type="curve" smooth="yes"/>
      <point x="480" y="164" type="line" smooth="yes"/>
      <point x="467" y="87"/>
      <point x="406" y="47"/>
      <point x="290" y="47" type="curve" smooth="yes"/>
      <point x="161" y="47"/>
      <point x="98" y="113"/>
      <point x="117" y="223" type="curve" smooth="yes"/>
      <point x="118" y="231" type="line"/>
      <point x="54" y="231" type="line"/>
      <point x="49" y="62"/>
      <point x="124" y="-10"/>
    </contour>
    <contour>
      <point x="375" y="690" type="move" name="top"/>
    </contour>
  </outline>
</glyph>
<glyph name="T" format="1">
  <advance width="598"/>
  <unicode hex="0054"/>
  <outline>
    <contour>
      <point x="222" y="0" type="line"/>
      <point x="286" y="0" type="line"/>
      <point x="393" y="637" type="line"/>
      <point x="560" y="637" type="line"/>
      <point x="536" y="494" type="line"/>
      <point x="592" y="494" type="line"/>
      <point x="625" y="690" type="line"/>
      <point x="116" y="690" type="line"/>
      <point x="83" y="494" type="line"/>
      <point x="138" y="494" type="line"/>
      <point x="162" y="637" type="line"/>
      <point x="329" y="637" type="line"/>
    </contour>
  </outline>
</glyph>
<glyph name="U" format="1">
  <advance width="692"/>
  <unicode hex="0055"/>
  <outline>
    <contour>
      <point x="287" y="-10" type="curve" smooth="yes"/>
      <point x="383" y="-10"/>
      <point x="439" y="23"/>
      <point x="480" y="94" type="curve"/>
      <point x="502" y="94" type="line"/>
      <point x="494" y="50" type="line" smooth="yes"/>
      <point x="488" y="18"/>
      <point x="503" y="0"/>
      <point x="536" y="0" type="curve" smooth="yes"/>
      <point x="629" y="0" type="line"/>
      <point x="638" y="53" type="line"/>
      <point x="546" y="53" type="line"/>
      <point x="653" y="690" type="line"/>
      <point x="589" y="690" type="line"/>
      <point x="515" y="244" type="line" smooth="yes"/>
      <point x="492" y="108"/>
      <point x="434" y="47"/>
      <point x="312" y="47" type="curve" smooth="yes"/>
      <point x="190" y="47"/>
      <point x="139" y="108"/>
      <point x="163" y="248" type="curve" smooth="yes"/>
      <point x="237" y="690" type="line"/>
      <point x="82" y="690" type="line"/>
      <point x="73" y="637" type="line"/>
      <point x="164" y="637" type="line"/>
      <point x="97" y="234" type="line" smooth="yes"/>
      <point x="71" y="76"/>
      <point x="147" y="-10"/>
    </contour>
    <contour>
      <point x="413" y="690" type="move" name="top"/>
    </contour>
  </outline>
</glyph>
<glyph name="V" format="1">
  <advance width="625"/>
  <unicode hex="0056"/>
  <outline>
    <contour>
      <point x="210" y="0" type="line"/>
      <point x="325" y="0" type="line"/>
      <point x="664" y="690" type="line"/>
      <point x="595" y="690" type="line"/>
      <point x="286" y="57" type="line"/>
      <point x="265" y="57" type="line"/>
      <point x="168" y="690" type="line"/>
      <point x="103" y="690" type="line"/>
    </contour>
  </outline>
</glyph>
<glyph name="X" format="1">
  <advance width="665"/>
  <unicode hex="0058"/>
  <outline>
    <contour>
      <point x="-11" y="0" type="line"/>
      <point x="128" y="0" type="line"/>
      <point x="334" y="326" type="line"/>
      <point x="356" y="326" type="line"/>
      <point x="452" y="0" type="line"/>
      <point x="587" y="0" type="line"/>
      <point x="596" y="53" type="line"/>
      <point x="504" y="53" type="line"/>
      <point x="407" y="376" type="line"/>
      <point x="402" y="339" type="line"/>
      <point x="595" y="637" type="line"/>
      <point x="687" y="637" type="line"/>
      <point x="696" y="690" type="line"/>
      <point x="557" y="690" type="line"/>
      <point x="360" y="382" type="line"/>
      <point x="338" y="382" type="line"/>
      <point x="246" y="690" type="line"/>
      <point x="111" y="690" type="line"/>
      <point x="102" y="637" type="line"/>
      <point x="194" y="637" type="line"/>
      <point x="288" y="339" type="line"/>
      <point x="295" y="376" type="line"/>
      <point x="89" y="53" type="line"/>
      <point x="-2" y="53" type="line"/>
    </contour>
  </outline>
</glyph>
<glyph name="bracketleft" format="1">
  <advance width="330"/>
  <unicode hex="005B"/>
  <outline>
    <contour>
      <point x="37" y="-92" type="line"/>
      <point x="233" y="-92" type="line"/>
      <point x="242" y="-41" type="line"/>
      <point x="106" y="-41" type="line"/>
      <point x="234" y="731" type="line"/>
      <point x="370" y="731" type="line"/>
      <point x="379" y="782" type="line"/>
      <point x="183" y="782" type="line"/>
    </contour>
  </outline>
</glyph>
<glyph name="bracketright" format="1">
  <advance width="330"/>
  <unicode hex="005D"/>
  <outline>
    <contour>
      <point x="293" y="782" type="line"/>
      <point x="97" y="782" type="line"/>
      <point x="89" y="731" type="line"/>
      <point x="225" y="731" type="line"/>
      <point x="96" y="-41" type="line"/>
      <point x="-40" y="-41" type="line"/>
      <point x="-49" y="-92" type="line"/>
      <point x="147" y="-92" type="line"/>
    </contour>
  </outline>
</glyph>
<glyph name="a" format="1">
  <advance width="553"/>
  <unicode hex="0061"/>
  <outline>
    <contour>
      <point x="199" y="-10" type="curve" smooth="yes"/>
      <point x="280" y="-10"/>
      <point x="327" y="19"/>
      <point x="362" y="82" type="curve"/>
      <point x="383" y="82" type="line"/>
      <point x="377" y="46" type="line" smooth="yes"/>
      <point x="372" y="16"/>
      <point x="385" y="0"/>
      <point x="415" y="0" type="curve" smooth="yes"/>
      <point x="498" y="0" type="line"/>
      <point x="507" y="51" type="line"/>
      <point x="428" y="51" type="line"/>
      <point x="477" y="343" type="line" smooth="yes"/>
      <point x="499" y="476"/>
      <point x="428" y="544"/>
      <point x="300" y="544" type="curve" smooth="yes"/>
      <point x="185" y="544"/>
      <point x="118" y="493"/>
      <point x="84" y="373" type="curve"/>
      <point x="149" y="373" type="line"/>
      <point x="150" y="378" type="line" smooth="yes"/>
      <point x="160" y="435"/>
      <point x="195" y="489"/>
      <point x="295" y="489" type="curve" smooth="yes"/>
      <point x="389" y="489"/>
      <point x="432" y="444"/>
      <point x="414" y="337" type="curve" smooth="yes"/>
      <point x="406" y="290" type="line"/>
      <point x="404" y="279" type="line"/>
      <point x="388" y="183" type="line" smooth="yes"/>
      <point x="373" y="93"/>
      <point x="321" y="45"/>
      <point x="218" y="45" type="curve" smooth="yes"/>
      <point x="131" y="45"/>
      <point x="86" y="81"/>
      <point x="98" y="148" type="curve" smooth="yes"/>
      <point x="99" y="154" type="line" smooth="yes"/>
      <point x="109" y="212"/>
      <point x="158" y="245"/>
      <point x="255" y="249" type="curve" smooth="yes"/>
      <point x="401" y="256" type="line"/>
      <point x="409" y="303" type="line"/>
      <point x="247" y="295" type="line" smooth="yes"/>
      <point x="123" y="289"/>
      <point x="49" y="242"/>
      <point x="34" y="149" type="curve" smooth="yes"/>
      <point x="18" y="56"/>
      <point x="80" y="-10"/>
    </contour>
    <contour>
      <point x="498" y="0" type="move" name="ogonek"/>
    </contour>
    <contour>
      <point x="318" y="534" type="move" name="top"/>
    </contour>
  </outline>
</glyph>
<glyph name="c" format="1">
  <advance width="562"/>
  <unicode hex="0063"/>
  <outline>
    <contour>
      <point x="257" y="-10" type="curve" smooth="yes"/>
      <point x="374" y="-10"/>
      <point x="458" y="55"/>
      <point x="495" y="183" type="curve"/>
      <point x="430" y="183" type="line"/>
      <point x="429" y="181" type="line" smooth="yes"/>
      <point x="418" y="114"/>
      <point x="372" y="45"/>
      <point x="260" y="45" type="curve" smooth="yes"/>
      <point x="150" y="45"/>
      <point x="95" y="110"/>
      <point x="118" y="244" type="curve" smooth="yes"/>
      <point x="127" y="295" type="line" smooth="yes"/>
      <point x="149" y="429"/>
      <point x="203" y="489"/>
      <point x="312" y="489" type="curve" smooth="yes"/>
      <point x="424" y="489"/>
      <point x="466" y="414"/>
      <point x="457" y="361" type="curve" smooth="yes"/>
      <point x="457" y="359" type="line"/>
      <point x="518" y="359" type="line"/>
      <point x="511" y="480"/>
      <point x="435" y="544"/>
      <point x="315" y="544" type="curve" smooth="yes"/>
      <point x="180" y="544"/>
      <point x="87" y="456"/>
      <point x="58" y="280" type="curve" smooth="yes"/>
      <point x="28" y="94"/>
      <point x="104" y="-10"/>
    </contour>
    <contour>
      <point x="241" y="0" type="move" name="bottom"/>
    </contour>
    <contour>
      <point x="331" y="534" type="move" name="top"/>
    </contour>
  </outline>
</glyph>
<glyph name="d" format="1">
  <advance width="606"/>
  <unicode hex="0064"/>
  <outline>
    <contour>
      <point x="242" y="-10" type="curve" smooth="yes"/>
      <point x="320" y="-10"/>
      <point x="367" y="22"/>
      <point x="409" y="93" type="curve"/>
      <point x="431" y="93" type="line"/>
      <point x="423" y="50" type="line" smooth="yes"/>
      <point x="418" y="18"/>
      <point x="432" y="0"/>
      <point x="465" y="0" type="curve" smooth="yes"/>
      <point x="543" y="0" type="line"/>
      <point x="552" y="51" type="line"/>
      <point x="473" y="51" type="line"/>
      <point x="580" y="690" type="line"/>
      <point x="519" y="690" type="line"/>
      <point x="498" y="571" type="line" smooth="yes"/>
      <point x="493" y="540"/>
      <point x="489" y="508"/>
      <point x="484" y="445" type="curve"/>
      <point x="462" y="445" type="line"/>
      <point x="434" y="513"/>
      <point x="378" y="544"/>
      <point x="302" y="544" type="curve" smooth="yes"/>
      <point x="172" y="544"/>
      <point x="90" y="460"/>
      <point x="59" y="281" type="curve" smooth="yes"/>
      <point x="29" y="101"/>
      <point x="100" y="-10"/>
    </contour>
    <contour>
      <point x="259" y="45" type="curve" smooth="yes"/>
      <point x="148" y="45"/>
      <point x="97" y="110"/>
      <point x="120" y="245" type="curve" smooth="yes"/>
      <point x="128" y="295" type="line" smooth="yes"/>
      <point x="151" y="429"/>
      <point x="200" y="489"/>
      <point x="312" y="489" type="curve" smooth="yes"/>
      <point x="423" y="489"/>
      <point x="474" y="424"/>
      <point x="451" y="289" type="curve" smooth="yes"/>
      <point x="443" y="239" type="line" smooth="yes"/>
      <point x="420" y="105"/>
      <point x="371" y="45"/>
    </contour>
  </outline>
</glyph>
<glyph name="g" format="1">
  <advance width="594"/>
  <unicode hex="0067"/>
  <outline>
    <contour>
      <point x="242" y="-142" type="curve" smooth="yes"/>
      <point x="368" y="-142"/>
      <point x="449" y="-82"/>
      <point x="468" y="30" type="curve" smooth="yes"/>
      <point x="552" y="534" type="line"/>
      <point x="503" y="534" type="line"/>
      <point x="486" y="441" type="line"/>
      <point x="465" y="441" type="line"/>
      <point x="433" y="512"/>
      <point x="380" y="544"/>
      <point x="300" y="544" type="curve" smooth="yes"/>
      <point x="170" y="544"/>
      <point x="86" y="457"/>
      <point x="61" y="305" type="curve" smooth="yes"/>
      <point x="36" y="149"/>
      <point x="106" y="40"/>
      <point x="248" y="40" type="curve" smooth="yes"/>
      <point x="322" y="40"/>
      <point x="374" y="71"/>
      <point x="413" y="134" type="curve"/>
      <point x="433" y="134" type="line"/>
      <point x="421" y="93"/>
      <point x="415" y="71"/>
      <point x="410" y="45" type="curve" smooth="yes"/>
      <point x="391" y="-45"/>
      <point x="341" y="-87"/>
      <point x="239" y="-87" type="curve" smooth="yes"/>
      <point x="149" y="-87"/>
      <point x="98" y="-47"/>
      <point x="103" y="-7" type="curve"/>
      <point x="103" y="-7" type="line"/>
      <point x="39" y="-7" type="line"/>
      <point x="54" y="-102"/>
      <point x="136" y="-142"/>
    </contour>
    <contour>
      <point x="265" y="93" type="curve" smooth="yes"/>
      <point x="154" y="93"/>
      <point x="104" y="161"/>
      <point x="123" y="276" type="curve" smooth="yes"/>
      <point x="129" y="312" type="line" smooth="yes"/>
      <point x="148" y="427"/>
      <point x="198" y="489"/>
      <point x="310" y="489" type="curve" smooth="yes"/>
      <point x="421" y="489"/>
      <point x="471" y="421"/>
      <point x="452" y="306" type="curve" smooth="yes"/>
      <point x="446" y="271" type="line" smooth="yes"/>
      <point x="427" y="155"/>
      <point x="377" y="93"/>
    </contour>
  </outline>
</glyph>
<glyph name="k" format="1">
  <advance width="572"/>
  <unicode hex="006B"/>
  <outline>
    <contour>
      <point x="45" y="0" type="line"/>
      <point x="106" y="0" type="line"/>
      <point x="149" y="252" type="line"/>
      <point x="235" y="252" type="line"/>
      <point x="394" y="0" type="line"/>
      <point x="509" y="0" type="line"/>
      <point x="518" y="51" type="line"/>
      <point x="439" y="51" type="line"/>
      <point x="275" y="307" type="line"/>
      <point x="279" y="257" type="line"/>
      <point x="580" y="534" type="line"/>
      <point x="494" y="534" type="line"/>
      <point x="243" y="300" type="line"/>
      <point x="157" y="300" type="line"/>
      <point x="222" y="690" type="line"/>
      <point x="81" y="690" type="line"/>
      <point x="73" y="639" type="line"/>
      <point x="152" y="639" type="line"/>
    </contour>
  </outline>
</glyph>
<glyph name="o" format="1">
  <advance width="583"/>
  <unicode hex="006F"/>
  <outline>
    <contour>
      <point x="266" y="-10" type="curve" smooth="yes"/>
      <point x="402" y="-10"/>
      <point x="496" y="80"/>
      <point x="526" y="253" type="curve" smooth="yes"/>
      <point x="558" y="444"/>
      <point x="473" y="544"/>
      <point x="317" y="544" type="curve" smooth="yes"/>
      <point x="181" y="544"/>
      <point x="87" y="454"/>
      <point x="57" y="281" type="curve" smooth="yes"/>
      <point x="25" y="90"/>
      <point x="110" y="-10"/>
    </contour>
    <contour>
      <point x="265" y="45" type="curve" smooth="yes"/>
      <point x="149" y="45"/>
      <point x="95" y="111"/>
      <point x="118" y="246" type="curve" smooth="yes"/>
      <point x="126" y="294" type="line" smooth="yes"/>
      <point x="149" y="429"/>
      <point x="201" y="489"/>
      <point x="318" y="489" type="curve" smooth="yes"/>
      <point x="434" y="489"/>
      <point x="488" y="424"/>
      <point x="465" y="288" type="curve" smooth="yes"/>
      <point x="457" y="241" type="line" smooth="yes"/>
      <point x="435" y="105"/>
      <point x="382" y="45"/>
    </contour>
    <contour>
      <point x="337" y="534" type="move" name="top"/>
    </contour>
  </outline>
</glyph>
<glyph name="q" format="1">
  <advance width="597"/>
  <unicode hex="0071"/>
  <outline>
    <contour>
      <point x="395" y="-37" type="curve" smooth="yes"/>
      <point x="379" y="-132" type="line"/>
      <point x="441" y="-132" type="line"/>
      <point x="553" y="534" type="line"/>
      <point x="503" y="534" type="line"/>
      <point x="487" y="441" type="line"/>
      <point x="465" y="441" type="line"/>
      <point x="433" y="512"/>
      <point x="380" y="544"/>
      <point x="300" y="544" type="curve" smooth="yes"/>
      <point x="170" y="544"/>
      <point x="88" y="460"/>
      <point x="58" y="281" type="curve" smooth="yes"/>
      <point x="27" y="101"/>
      <point x="98" y="-10"/>
      <point x="241" y="-10" type="curve" smooth="yes"/>
      <point x="315" y="-10"/>
      <point x="365" y="21"/>
      <point x="405" y="89" type="curve"/>
      <point x="426" y="89" type="line"/>
      <point x="408" y="26"/>
      <point x="400" y="-6"/>
    </contour>
    <contour>
      <point x="257" y="45" type="curve" smooth="yes"/>
      <point x="146" y="45"/>
      <point x="95" y="110"/>
      <point x="118" y="245" type="curve" smooth="yes"/>
      <point x="127" y="295" type="line" smooth="yes"/>
      <point x="149" y="429"/>
      <point x="199" y="489"/>
      <point x="310" y="489" type="curve" smooth="yes"/>
      <point x="421" y="489"/>
      <point x="472" y="424"/>
      <point x="450" y="289" type="curve" smooth="yes"/>
      <point x="441" y="239" type="line" smooth="yes"/>
      <point x="418" y="105"/>
      <point x="369" y="45"/>
    </contour>
  </outline>
</glyph>
<glyph name="r" format="1">
  <advance width="446"/>
  <unicode hex="0072"/>
  <outline>
    <contour>
      <point x="56" y="0" type="line"/>
      <point x="118" y="0" type="line"/>
      <point x="172" y="322" type="line" smooth="yes"/>
      <point x="191" y="432"/>
      <point x="235" y="483"/>
      <point x="339" y="483" type="curve" smooth="yes"/>
      <point x="449" y="483" type="line"/>
      <point x="459" y="538" type="line"/>
      <point x="354" y="538" type="line" smooth="yes"/>
      <point x="281" y="538"/>
      <point x="237" y="509"/>
      <point x="202" y="446" type="curve"/>
      <point x="181" y="446" type="line"/>
      <point x="196" y="534" type="line"/>
      <point x="67" y="534" type="line"/>
      <point x="58" y="483" type="line"/>
      <point x="137" y="483" type="line"/>
    </contour>
  </outline>
</glyph>
<glyph name="s" format="1">
  <advance width="532"/>
  <unicode hex="0073"/>
  <outline>
    <contour>
      <point x="251" y="-10" type="curve" smooth="yes"/>
      <point x="365" y="-10"/>
      <point x="440" y="36"/>
      <point x="455" y="124" type="curve" smooth="yes"/>
      <point x="468" y="202"/>
      <point x="432" y="252"/>
      <point x="328" y="282" type="curve" smooth="yes"/>
      <point x="240" y="306" type="line" smooth="yes"/>
      <point x="158" y="329"/>
      <point x="132" y="356"/>
      <point x="141" y="405" type="curve" smooth="yes"/>
      <point x="150" y="460"/>
      <point x="198" y="490"/>
      <point x="289" y="490" type="curve" smooth="yes"/>
      <point x="407" y="490"/>
      <point x="435" y="428"/>
      <point x="432" y="378" type="curve" smooth="yes"/>
      <point x="431" y="373" type="line"/>
      <point x="493" y="373" type="line"/>
      <point x="487" y="498"/>
      <point x="412" y="544"/>
      <point x="283" y="544" type="curve" smooth="yes"/>
      <point x="169" y="544"/>
      <point x="95" y="498"/>
      <point x="80" y="411" type="curve" smooth="yes"/>
      <point x="67" y="332"/>
      <point x="102" y="281"/>
      <point x="205" y="252" type="curve" smooth="yes"/>
      <point x="293" y="228" type="line" smooth="yes"/>
      <point x="377" y="204"/>
      <point x="402" y="178"/>
      <point x="394" y="129" type="curve" smooth="yes"/>
      <point x="385" y="74"/>
      <point x="335" y="44"/>
      <point x="242" y="44" type="curve" smooth="yes"/>
      <point x="123" y="44"/>
      <point x="96" y="106"/>
      <point x="99" y="156" type="curve" smooth="yes"/>
      <point x="99" y="161" type="line"/>
      <point x="37" y="161" type="line"/>
      <point x="43" y="35"/>
      <point x="121" y="-10"/>
    </contour>
    <contour>
      <point x="305" y="534" type="move" name="top"/>
    </contour>
  </outline>
</glyph>
<glyph name="u" format="1">
  <advance width="604"/>
  <unicode hex="0075"/>
  <outline>
    <contour>
      <point x="245" y="-10" type="curve" smooth="yes"/>
      <point x="318" y="-10"/>
      <point x="364" y="19"/>
      <point x="400" y="82" type="curve"/>
      <point x="421" y="82" type="line"/>
      <point x="416" y="50" type="line" smooth="yes"/>
      <point x="411" y="18"/>
      <point x="424" y="0"/>
      <point x="458" y="0" type="curve" smooth="yes"/>
      <point x="536" y="0" type="line"/>
      <point x="545" y="51" type="line"/>
      <point x="465" y="51" type="line"/>
      <point x="547" y="534" type="line"/>
      <point x="485" y="534" type="line"/>
      <point x="430" y="206" type="line" smooth="yes"/>
      <point x="411" y="96"/>
      <point x="367" y="45"/>
      <point x="270" y="45" type="curve" smooth="yes"/>
      <point x="172" y="45"/>
      <point x="131" y="96"/>
      <point x="150" y="210" type="curve" smooth="yes"/>
      <point x="205" y="534" type="line"/>
      <point x="64" y="534" type="line"/>
      <point x="56" y="483" type="line"/>
      <point x="135" y="483" type="line"/>
      <point x="87" y="198" type="line" smooth="yes"/>
      <point x="64" y="63"/>
      <point x="129" y="-10"/>
    </contour>
    <contour>
      <point x="345" y="534" type="move" name="top"/>
    </contour>
  </outline>
</glyph>
<glyph name="v" format="1">
  <advance width="536"/>
  <unicode hex="0076"/>
  <outline>
    <contour>
      <point x="167" y="0" type="line"/>
      <point x="278" y="0" type="line"/>
      <point x="549" y="534" type="line"/>
      <point x="483" y="534" type="line"/>
      <point x="242" y="55" type="line"/>
      <point x="220" y="55" type="line"/>
      <point x="140" y="534" type="line"/>
      <point x="76" y="534" type="line"/>
    </contour>
  </outline>
</glyph>
<glyph name="w" format="1">
  <advance width="863"/>
  <unicode hex="0077"/>
  <outline>
    <contour>
      <point x="149" y="0" type="line"/>
      <point x="256" y="0" type="line"/>
      <point x="441" y="389" type="line"/>
      <point x="463" y="389" type="line"/>
      <point x="517" y="0" type="line"/>
      <point x="624" y="0" type="line"/>
      <point x="874" y="534" type="line"/>
      <point x="809" y="534" type="line"/>
      <point x="588" y="55" type="line"/>
      <point x="566" y="55" type="line"/>
      <point x="504" y="534" type="line"/>
      <point x="446" y="534" type="line"/>
      <point x="223" y="55" type="line"/>
      <point x="201" y="55" type="line"/>
      <point x="141" y="534" type="line"/>
      <point x="79" y="534" type="line"/>
    </contour>
  </outline>
</glyph>
<glyph name="x" format="1">
  <advance width="582"/>
  <unicode hex="0078"/>
  <outline>
    <contour>
      <point x="-13" y="0" type="line"/>
      <point x="111" y="0" type="line"/>
      <point x="279" y="249" type="line"/>
      <point x="300" y="249" type="line"/>
      <point x="384" y="0" type="line"/>
      <point x="505" y="0" type="line"/>
      <point x="513" y="51" type="line"/>
      <point x="434" y="51" type="line"/>
      <point x="349" y="298" type="line"/>
      <point x="344" y="261" type="line"/>
      <point x="500" y="483" type="line"/>
      <point x="579" y="483" type="line"/>
      <point x="588" y="534" type="line"/>
      <point x="464" y="534" type="line"/>
      <point x="306" y="303" type="line"/>
      <point x="284" y="303" type="line"/>
      <point x="204" y="534" type="line"/>
      <point x="84" y="534" type="line"/>
      <point x="75" y="483" type="line"/>
      <point x="154" y="483" type="line"/>
      <point x="236" y="261" type="line"/>
      <point x="243" y="298" type="line"/>
      <point x="75" y="51" type="line"/>
      <point x="-5" y="51" type="line"/>
    </contour>
  </outline>
</glyph>
<glyph name="z" format="1">
  <advance width="492"/>
  <unicode hex="007A"/>
  <outline>
    <contour>
      <point x="2" y="0" type="line"/>
      <point x="400" y="0" type="line"/>
      <point x="409" y="51" type="line"/>
      <point x="91" y="51" type="line"/>
      <point x="479" y="483" type="line"/>
      <point x="488" y="534" type="line"/>
      <point x="95" y="534" type="line"/>
      <point x="86" y="483" type="line"/>
      <point x="399" y="483" type="line"/>
      <point x="11" y="51" type="line"/>
    </contour>
    <contour>
      <point x="291" y="534" type="move" name="top"/>
    </contour>
  </outline>
</glyph>
<glyph name="braceright" format="1">
  <advance width="360"/>
  <unicode hex="007D"/>
  <outline>
    <contour>
      <point x="269" y="782" type="curve" smooth="yes"/>
      <point x="123" y="782" type="line"/>
      <point x="115" y="731" type="line"/>
      <point x="246" y="731" type="line" smooth="yes"/>
      <point x="261" y="731"/>
      <point x="268" y="724"/>
      <point x="265" y="708" type="curve" smooth="yes"/>
      <point x="259" y="671"/>
      <point x="182" y="475"/>
      <point x="172" y="414" type="curve" smooth="yes"/>
      <point x="165" y="377"/>
      <point x="177" y="357"/>
      <point x="207" y="353" type="curve"/>
      <point x="205" y="337" type="line"/>
      <point x="173" y="333"/>
      <point x="155" y="313"/>
      <point x="149" y="276" type="curve" smooth="yes"/>
      <point x="138" y="215"/>
      <point x="150" y="19"/>
      <point x="144" y="-18" type="curve" smooth="yes"/>
      <point x="141" y="-33"/>
      <point x="132" y="-41"/>
      <point x="117" y="-41" type="curve" smooth="yes"/>
      <point x="-14" y="-41" type="line"/>
      <point x="-23" y="-92" type="line"/>
      <point x="131" y="-92" type="line" smooth="yes"/>
      <point x="171" y="-92"/>
      <point x="194" y="-72"/>
      <point x="201" y="-32" type="curve" smooth="yes"/>
      <point x="211" y="28"/>
      <point x="197" y="221"/>
      <point x="206" y="278" type="curve" smooth="yes"/>
      <point x="211" y="307"/>
      <point x="225" y="320"/>
      <point x="248" y="320" type="curve" smooth="yes"/>
      <point x="341" y="320" type="line"/>
      <point x="349" y="370" type="line"/>
      <point x="256" y="370" type="line" smooth="yes"/>
      <point x="233" y="370"/>
      <point x="225" y="384"/>
      <point x="229" y="412" type="curve" smooth="yes"/>
      <point x="238" y="469"/>
      <point x="315" y="654"/>
      <point x="325" y="714" type="curve" smooth="yes"/>
      <point x="333" y="759"/>
      <point x="315" y="782"/>
    </contour>
  </outline>
</glyph>
<glyph name="asciitilde" format="1">
  <advance width="474"/>
  <unicode hex="007E"/>
  <outline>
    <contour>
      <point x="43" y="286" type="curve"/>
      <point x="93" y="286" type="line"/>
      <point x="99" y="322"/>
      <point x="119" y="342"/>
      <point x="150" y="342" type="curve" smooth="yes"/>
      <point x="207" y="342"/>
      <point x="273" y="282"/>
      <point x="349" y="282" type="curve" smooth="yes"/>
      <point x="409" y="282"/>
      <point x="446" y="319"/>
      <point x="455" y="388" type="curve"/>
      <point x="405" y="388" type="line"/>
      <point x="398" y="352"/>
      <point x="379" y="332"/>
      <point x="348" y="332" type="curve" smooth="yes"/>
      <point x="291" y="332"/>
      <point x="225" y="392"/>
      <point x="149" y="392" type="curve" smooth="yes"/>
      <point x="89" y="392"/>
      <point x="53" y="355"/>
    </contour>
  </outline>
</glyph>
<glyph name="cent" format="1">
  <advance width="576"/>
  <unicode hex="00A2"/>
  <outline>
    <contour>
      <point x="264" y="-5" type="curve" smooth="yes"/>
      <point x="382" y="-5"/>
      <point x="465" y="56"/>
      <point x="501" y="183" type="curve"/>
      <point x="436" y="183" type="line"/>
      <point x="436" y="181" type="line" smooth="yes"/>
      <point x="425" y="115"/>
      <point x="379" y="49"/>
      <point x="267" y="49" type="curve" smooth="yes"/>
      <point x="158" y="49"/>
      <point x="102" y="111"/>
      <point x="124" y="244" type="curve" smooth="yes"/>
      <point x="133" y="295" type="line" smooth="yes"/>
      <point x="155" y="429"/>
      <point x="208" y="485"/>
      <point x="318" y="485" type="curve" smooth="yes"/>
      <point x="430" y="485"/>
      <point x="472" y="414"/>
      <point x="464" y="361" type="curve" smooth="yes"/>
      <point x="464" y="359" type="line"/>
      <point x="524" y="359" type="line"/>
      <point x="517" y="478"/>
      <point x="440" y="539"/>
      <point x="320" y="539" type="curve" smooth="yes"/>
      <point x="186" y="539"/>
      <point x="94" y="455"/>
      <point x="65" y="280" type="curve" smooth="yes"/>
      <point x="35" y="94"/>
      <point x="111" y="-5"/>
    </contour>
    <contour>
      <point x="205" y="-92" type="line"/>
      <point x="260" y="-92" type="line"/>
      <point x="279" y="24" type="line"/>
      <point x="224" y="24" type="line"/>
    </contour>
    <contour>
      <point x="306" y="510" type="line"/>
      <point x="361" y="510" type="line"/>
      <point x="380" y="626" type="line"/>
      <point x="325" y="626" type="line"/>
    </contour>
  </outline>
</glyph>
<glyph name="sterling" format="1">
  <advance width="609"/>
  <unicode hex="00A3"/>
  <outline>
    <contour>
      <point x="36" y="54" type="curve"/>
      <point x="27" y="0" type="line"/>
      <point x="508" y="0" type="line"/>
      <point x="517" y="57" type="line"/>
      <point x="109" y="57" type="line"/>
      <point x="162" y="89"/>
      <point x="208" y="149"/>
      <point x="220" y="222" type="curve" smooth="yes"/>
      <point x="236" y="316"/>
      <point x="185" y="403"/>
      <point x="201" y="496" type="curve" smooth="yes"/>
      <point x="204" y="512" type="line" smooth="yes"/>
      <point x="219" y="598"/>
      <point x="277" y="643"/>
      <point x="373" y="643" type="curve" smooth="yes"/>
      <point x="466" y="643"/>
      <point x="543" y="601"/>
      <point x="521" y="473" type="curve" smooth="yes"/>
      <point x="519" y="459" type="line"/>
      <point x="579" y="459" type="line"/>
      <point x="593" y="633"/>
      <point x="510" y="700"/>
      <point x="373" y="700" type="curve" smooth="yes"/>
      <point x="241" y="700"/>
      <point x="160" y="624"/>
      <point x="142" y="514" type="curve" smooth="yes"/>
      <point x="124" y="411"/>
      <point x="182" y="329"/>
      <point x="165" y="226" type="curve" smooth="yes"/>
      <point x="155" y="162"/>
      <point x="101" y="97"/>
    </contour>
    <contour>
      <point x="61" y="310" type="line"/>
      <point x="443" y="310" type="line"/>
      <point x="451" y="360" type="line"/>
      <point x="69" y="360" type="line"/>
    </contour>
  </outline>
</glyph>
<glyph name="currency" format="1">
  <advance width="580"/>
  <unicode hex="00A4"/>
  <outline>
    <contour>
      <point x="284" y="129" type="curve" smooth="yes"/>
      <point x="419" y="129"/>
      <point x="482" y="218"/>
      <point x="502" y="335" type="curve" smooth="yes"/>
      <point x="526" y="481"/>
      <point x="460" y="563"/>
      <point x="325" y="563" type="curve" smooth="yes"/>
      <point x="190" y="563"/>
      <point x="122" y="474"/>
      <point x="102" y="358" type="curve" smooth="yes"/>
      <point x="80" y="223"/>
      <point x="139" y="129"/>
    </contour>
    <contour>
      <point x="89" y="83" type="line"/>
      <point x="169" y="164" type="line"/>
      <point x="133" y="208" type="line"/>
      <point x="48" y="123" type="line"/>
    </contour>
    <contour>
      <point x="437" y="83" type="line"/>
      <point x="486" y="119" type="line"/>
      <point x="427" y="206" type="line"/>
      <point x="381" y="166" type="line"/>
    </contour>
    <contour>
      <point x="287" y="184" type="curve" smooth="yes"/>
      <point x="172" y="184"/>
      <point x="149" y="250"/>
      <point x="163" y="335" type="curve" smooth="yes"/>
      <point x="168" y="366" type="line" smooth="yes"/>
      <point x="182" y="449"/>
      <point x="210" y="509"/>
      <point x="325" y="509" type="curve" smooth="yes"/>
      <point x="440" y="509"/>
      <point x="455" y="443"/>
      <point x="441" y="358" type="curve" smooth="yes"/>
      <point x="436" y="327" type="line" smooth="yes"/>
      <point x="422" y="244"/>
      <point x="401" y="184"/>
    </contour>
    <contour>
      <point x="182" y="485" type="line"/>
      <point x="228" y="525" type="line"/>
      <point x="172" y="608" type="line"/>
      <point x="124" y="572" type="line"/>
    </contour>
    <contour>
      <point x="476" y="483" type="line"/>
      <point x="562" y="568" type="line"/>
      <point x="521" y="608" type="line"/>
      <point x="440" y="527" type="line"/>
    </contour>
  </outline>
</glyph>
<glyph name="yen" format="1">
  <advance width="616"/>
  <unicode hex="00A5"/>
  <outline>
    <contour>
      <point x="231" y="0" type="line"/>
      <point x="295" y="0" type="line"/>
      <point x="344" y="290" type="line"/>
      <point x="660" y="690" type="line"/>
      <point x="588" y="690" type="line"/>
      <point x="334" y="369" type="line"/>
      <point x="312" y="369" type="line"/>
      <point x="166" y="690" type="line"/>
      <point x="98" y="690" type="line"/>
      <point x="280" y="290" type="line"/>
    </contour>
    <contour>
      <point x="91" y="172" type="line"/>
      <point x="493" y="172" type="line"/>
      <point x="501" y="221" type="line"/>
      <point x="99" y="221" type="line"/>
    </contour>
    <contour>
      <point x="111" y="290" type="line"/>
      <point x="513" y="290" type="line"/>
      <point x="521" y="339" type="line"/>
      <point x="119" y="339" type="line"/>
    </contour>
  </outline>
</glyph>
<glyph name="brokenbar" format="1">
  <advance width="266"/>
  <unicode hex="00A6"/>
  <outline>
    <contour>
      <point x="125" y="400" type="line"/>
      <point x="184" y="400" type="line"/>
      <point x="248" y="782" type="line"/>
      <point x="189" y="782" type="line"/>
    </contour>
    <contour>
      <point x="43" y="-92" type="line"/>
      <point x="102" y="-92" type="line"/>
      <point x="166" y="290" type="line"/>
      <point x="107" y="290" type="line"/>
    </contour>
  </outline>
</glyph>
<glyph name="section" format="1">
  <advance width="579"/>
  <unicode hex="00A7"/>
  <outline>
    <contour>
      <point x="246" y="-102" type="curve" smooth="yes"/>
      <point x="386" y="-102"/>
      <point x="456" y="-54"/>
      <point x="472" y="45" type="curve" smooth="yes"/>
      <point x="480" y="90"/>
      <point x="466" y="134"/>
      <point x="436" y="159" type="curve"/>
      <point x="440" y="181" type="line"/>
      <point x="487" y="202"/>
      <point x="516" y="234"/>
      <point x="524" y="279" type="curve" smooth="yes"/>
      <point x="534" y="336"/>
      <point x="502" y="384"/>
      <point x="403" y="412" type="curve" smooth="yes"/>
      <point x="273" y="445" type="line" smooth="yes"/>
      <point x="197" y="466"/>
      <point x="165" y="493"/>
      <point x="174" y="546" type="curve" smooth="yes"/>
      <point x="185" y="614"/>
      <point x="241" y="646"/>
      <point x="344" y="646" type="curve" smooth="yes"/>
      <point x="464" y="646"/>
      <point x="498" y="582"/>
      <point x="490" y="532" type="curve" smooth="yes"/>
      <point x="489" y="525" type="line"/>
      <point x="549" y="525" type="line"/>
      <point x="550" y="641"/>
      <point x="483" y="700"/>
      <point x="346" y="700" type="curve" smooth="yes"/>
      <point x="206" y="700"/>
      <point x="131" y="644"/>
      <point x="116" y="553" type="curve" smooth="yes"/>
      <point x="107" y="500"/>
      <point x="121" y="464"/>
      <point x="159" y="438" type="curve"/>
      <point x="155" y="416" type="line"/>
      <point x="108" y="396"/>
      <point x="78" y="364"/>
      <point x="71" y="318" type="curve" smooth="yes"/>
      <point x="61" y="262"/>
      <point x="93" y="214"/>
      <point x="191" y="185" type="curve" smooth="yes"/>
      <point x="322" y="153" type="line" smooth="yes"/>
      <point x="398" y="132"/>
      <point x="422" y="96"/>
      <point x="414" y="47" type="curve" smooth="yes"/>
      <point x="403" y="-19"/>
      <point x="352" y="-48"/>
      <point x="248" y="-48" type="curve" smooth="yes"/>
      <point x="118" y="-48"/>
      <point x="83" y="-2"/>
      <point x="93" y="62" type="curve" smooth="yes"/>
      <point x="94" y="69" type="line"/>
      <point x="34" y="69" type="line"/>
      <point x="24" y="-61"/>
      <point x="98" y="-102"/>
    </contour>
    <contour>
      <point x="408" y="191" type="curve"/>
      <point x="228" y="236" type="line" smooth="yes"/>
      <point x="148" y="259"/>
      <point x="125" y="290"/>
      <point x="132" y="333" type="curve" smooth="yes"/>
      <point x="137" y="365"/>
      <point x="157" y="389"/>
      <point x="187" y="406" type="curve"/>
      <point x="367" y="361" type="line" smooth="yes"/>
      <point x="447" y="338"/>
      <point x="471" y="309"/>
      <point x="463" y="265" type="curve" smooth="yes"/>
      <point x="458" y="233"/>
      <point x="439" y="208"/>
    </contour>
  </outline>
</glyph>
<glyph name="dieresis" format="1">
  <advance width="400"/>
  <unicode hex="00A8"/>
  <outline>
    <component base="dieresiscomb" identifier="7388AABE"/>
    <contour>
      <point x="245" y="534" type="move" name="_top"/>
    </contour>
  </outline>
</glyph>
<glyph name="ordfeminine" format="1">
  <advance width="438"/>
  <unicode hex="00AA"/>
  <note>
ordfeminine
</note>
  <outline>
    <contour>
      <point x="193" y="353" type="curve" smooth="yes"/>
      <point x="245" y="353"/>
      <point x="278" y="371"/>
      <point x="301" y="413" type="curve"/>
      <point x="317" y="413" type="line"/>
      <point x="315" y="397" type="line" smooth="yes"/>
      <point x="311" y="374"/>
      <point x="321" y="359"/>
      <point x="345" y="359" type="curve" smooth="yes"/>
      <point x="401" y="359" type="line"/>
      <point x="407" y="398" type="line"/>
      <point x="357" y="398" type="line"/>
      <point x="386" y="570" type="line" smooth="yes"/>
      <point x="399" y="650"/>
      <point x="352" y="696"/>
      <point x="265" y="696" type="curve" smooth="yes"/>
      <point x="183" y="696"/>
      <point x="139" y="664"/>
      <point x="118" y="588" type="curve"/>
      <point x="172" y="588" type="line"/>
      <point x="173" y="590" type="line" smooth="yes"/>
      <point x="179" y="631"/>
      <point x="208" y="654"/>
      <point x="260" y="654" type="curve" smooth="yes"/>
      <point x="316" y="654"/>
      <point x="344" y="628"/>
      <point x="334" y="569" type="curve" smooth="yes"/>
      <point x="329" y="535" type="line"/>
      <point x="327" y="526" type="line"/>
      <point x="318" y="473" type="line" smooth="yes"/>
      <point x="310" y="422"/>
      <point x="276" y="394"/>
      <point x="215" y="394" type="curve" smooth="yes"/>
      <point x="163" y="394"/>
      <point x="136" y="418"/>
      <point x="142" y="452" type="curve" smooth="yes"/>
      <point x="143" y="458" type="line" smooth="yes"/>
      <point x="149" y="492"/>
      <point x="174" y="507"/>
      <point x="236" y="509" type="curve" smooth="yes"/>
      <point x="325" y="513" type="line"/>
      <point x="332" y="548" type="line"/>
      <point x="227" y="544" type="line" smooth="yes"/>
      <point x="140" y="540"/>
      <point x="98" y="513"/>
      <point x="89" y="453" type="curve" smooth="yes"/>
      <point x="79" y="395"/>
      <point x="120" y="353"/>
    </contour>
    <contour>
      <point x="275" y="690" type="move" name="top"/>
    </contour>
  </outline>
</glyph>
<glyph name="logicalnot" format="1">
  <advance width="474"/>
  <unicode hex="00AC"/>
  <outline>
    <contour>
      <point x="362" y="169" type="line"/>
      <point x="416" y="169" type="line"/>
      <point x="448" y="362" type="line"/>
      <point x="53" y="362" type="line"/>
      <point x="45" y="312" type="line"/>
      <point x="423" y="312" type="line"/>
      <point x="390" y="341" type="line"/>
    </contour>
  </outline>
</glyph>
<glyph name="registered" format="1">
  <advance width="484"/>
  <unicode hex="00AE"/>
  <outline>
    <contour>
      <point x="257" y="294" type="curve" smooth="yes"/>
      <point x="363" y="294"/>
      <point x="452" y="371"/>
      <point x="471" y="485" type="curve" smooth="yes"/>
      <point x="491" y="607"/>
      <point x="420" y="699"/>
      <point x="303" y="699" type="curve" smooth="yes"/>
      <point x="197" y="699"/>
      <point x="108" y="622"/>
      <point x="89" y="508" type="curve" smooth="yes"/>
      <point x="69" y="385"/>
      <point x="140" y="294"/>
    </contour>
    <contour>
      <point x="304" y="382" type="line"/>
      <point x="346" y="382" type="line"/>
      <point x="315" y="498" type="line"/>
      <point x="276" y="493" type="line"/>
    </contour>
    <contour>
      <point x="259" y="334" type="curve" smooth="yes"/>
      <point x="167" y="334"/>
      <point x="115" y="396"/>
      <point x="132" y="493" type="curve" smooth="yes"/>
      <point x="134" y="509" type="line" smooth="yes"/>
      <point x="150" y="604"/>
      <point x="210" y="659"/>
      <point x="302" y="659" type="curve" smooth="yes"/>
      <point x="394" y="659"/>
      <point x="446" y="598"/>
      <point x="429" y="501" type="curve" smooth="yes"/>
      <point x="426" y="485" type="line" smooth="yes"/>
      <point x="410" y="390"/>
      <point x="351" y="334"/>
    </contour>
    <contour>
      <point x="184" y="382" type="line"/>
      <point x="225" y="382" type="line"/>
      <point x="241" y="476" type="line"/>
      <point x="298" y="476" type="line" smooth="yes"/>
      <point x="339" y="476"/>
      <point x="365" y="498"/>
      <point x="372" y="538" type="curve" smooth="yes"/>
      <point x="378" y="580"/>
      <point x="354" y="611"/>
      <point x="313" y="611" type="curve" smooth="yes"/>
      <point x="223" y="611" type="line"/>
    </contour>
    <contour>
      <point x="297" y="508" type="curve" smooth="yes"/>
      <point x="245" y="508" type="line"/>
      <point x="256" y="575" type="line"/>
      <point x="305" y="575" type="line" smooth="yes"/>
      <point x="324" y="575"/>
      <point x="335" y="565"/>
      <point x="332" y="546" type="curve" smooth="yes"/>
      <point x="330" y="538" type="line" smooth="yes"/>
      <point x="327" y="518"/>
      <point x="317" y="508"/>
    </contour>
  </outline>
</glyph>
<glyph name="macron" format="1">
  <advance width="400"/>
  <unicode hex="00AF"/>
  <outline>
    <contour>
      <point x="141" y="625" type="line"/>
      <point x="379" y="625" type="line"/>
      <point x="387" y="672" type="line"/>
      <point x="149" y="672" type="line"/>
    </contour>
    <contour>
      <point x="245" y="534" type="move" name="_top"/>
    </contour>
  </outline>
</glyph>
<glyph name="twosuperior" format="1">
  <advance width="368"/>
  <unicode hex="00B2"/>
  <note>
twosuperior
</note>
  <outline>
    <contour>
      <point x="71" y="441" type="curve" smooth="yes"/>
      <point x="59" y="368" type="line"/>
      <point x="340" y="368" type="line"/>
      <point x="357" y="469" type="line"/>
      <point x="308" y="469" type="line"/>
      <point x="298" y="409" type="line"/>
      <point x="93" y="409" type="line"/>
      <point x="118" y="386" type="line"/>
      <point x="126" y="432" type="line" smooth="yes"/>
      <point x="132" y="467"/>
      <point x="150" y="485"/>
      <point x="199" y="494" type="curve" smooth="yes"/>
      <point x="270" y="506" type="line" smooth="yes"/>
      <point x="342" y="519"/>
      <point x="374" y="541"/>
      <point x="381" y="587" type="curve" smooth="yes"/>
      <point x="382" y="593" type="line" smooth="yes"/>
      <point x="394" y="661"/>
      <point x="323" y="694"/>
      <point x="247" y="694" type="curve" smooth="yes"/>
      <point x="165" y="694"/>
      <point x="115" y="661"/>
      <point x="95" y="582" type="curve"/>
      <point x="152" y="582" type="line"/>
      <point x="153" y="589" type="line" smooth="yes"/>
      <point x="161" y="628"/>
      <point x="184" y="651"/>
      <point x="241" y="651" type="curve" smooth="yes"/>
      <point x="294" y="651"/>
      <point x="328" y="632"/>
      <point x="325" y="598" type="curve" smooth="yes"/>
      <point x="325" y="596" type="line" smooth="yes"/>
      <point x="324" y="570"/>
      <point x="302" y="557"/>
      <point x="256" y="549" type="curve" smooth="yes"/>
      <point x="186" y="536" type="line" smooth="yes"/>
      <point x="114" y="523"/>
      <point x="81" y="500"/>
    </contour>
  </outline>
</glyph>
<glyph name="paragraph" format="1">
  <advance width="531"/>
  <unicode hex="00B6"/>
  <outline>
    <contour>
      <point x="333" y="0" type="line"/>
      <point x="389" y="0" type="line"/>
      <point x="505" y="690" type="line"/>
      <point x="299" y="690" type="line" smooth="yes"/>
      <point x="167" y="690"/>
      <point x="96" y="637"/>
      <point x="76" y="514" type="curve" smooth="yes"/>
      <point x="57" y="399"/>
      <point x="121" y="321"/>
      <point x="244" y="321" type="curve" smooth="yes"/>
      <point x="308" y="321" type="line"/>
      <point x="361" y="639" type="line"/>
      <point x="440" y="639" type="line"/>
    </contour>
  </outline>
</glyph>
<glyph name="cedilla" format="1">
  <advance width="400"/>
  <unicode hex="00B8"/>
  <outline>
    <component base="cedillacomb" identifier="8A286148"/>
    <contour>
      <point x="155" y="0" type="move" name="_bottom"/>
    </contour>
  </outline>
</glyph>
<glyph name="ordmasculine" format="1">
  <advance width="432"/>
  <unicode hex="00BA"/>
  <note>
ordmasculine
</note>
  <outline>
    <contour>
      <point x="244" y="353" type="curve" smooth="yes"/>
      <point x="338" y="353"/>
      <point x="400" y="410"/>
      <point x="418" y="517" type="curve" smooth="yes"/>
      <point x="437" y="636"/>
      <point x="377" y="696"/>
      <point x="274" y="696" type="curve" smooth="yes"/>
      <point x="184" y="696"/>
      <point x="118" y="643"/>
      <point x="100" y="533" type="curve" smooth="yes"/>
      <point x="81" y="415"/>
      <point x="138" y="353"/>
    </contour>
    <contour>
      <point x="244" y="395" type="curve" smooth="yes"/>
      <point x="172" y="395"/>
      <point x="139" y="434"/>
      <point x="152" y="512" type="curve" smooth="yes"/>
      <point x="158" y="546" type="line" smooth="yes"/>
      <point x="171" y="621"/>
      <point x="203" y="654"/>
      <point x="275" y="654" type="curve" smooth="yes"/>
      <point x="347" y="654"/>
      <point x="378" y="616"/>
      <point x="366" y="537" type="curve" smooth="yes"/>
      <point x="361" y="503" type="line" smooth="yes"/>
      <point x="349" y="428"/>
      <point x="316" y="395"/>
    </contour>
    <contour>
      <point x="287" y="690" type="move" name="top"/>
    </contour>
  </outline>
</glyph>
<glyph name="questiondown" format="1">
  <advance width="543"/>
  <unicode hex="00BF"/>
  <outline>
    <contour>
      <point x="313" y="274" type="curve" smooth="yes"/>
      <point x="325" y="365" type="line"/>
      <point x="288" y="365" type="line"/>
      <point x="273" y="296" type="line" smooth="yes"/>
      <point x="265" y="256"/>
      <point x="239" y="232"/>
      <point x="189" y="218" type="curve" smooth="yes"/>
      <point x="77" y="189"/>
      <point x="26" y="135"/>
      <point x="11" y="45" type="curve" smooth="yes"/>
      <point x="10" y="35" type="line" smooth="yes"/>
      <point x="-13" y="-98"/>
      <point x="89" y="-166"/>
      <point x="220" y="-166" type="curve" smooth="yes"/>
      <point x="352" y="-166"/>
      <point x="429" y="-100"/>
      <point x="469" y="61" type="curve"/>
      <point x="405" y="61" type="line"/>
      <point x="404" y="53" type="line" smooth="yes"/>
      <point x="385" y="-52"/>
      <point x="334" y="-110"/>
      <point x="223" y="-110" type="curve" smooth="yes"/>
      <point x="121" y="-110"/>
      <point x="56" y="-58"/>
      <point x="71" y="26" type="curve" smooth="yes"/>
      <point x="73" y="40" type="line" smooth="yes"/>
      <point x="84" y="101"/>
      <point x="121" y="139"/>
      <point x="208" y="164" type="curve" smooth="yes"/>
      <point x="274" y="185"/>
      <point x="305" y="218"/>
    </contour>
    <contour>
      <point x="376" y="534" type="line"/>
      <point x="294" y="534" type="line"/>
      <point x="280" y="454" type="line"/>
      <point x="362" y="454" type="line"/>
    </contour>
  </outline>
</glyph>
<glyph name="Acircumflex" format="1">
  <advance width="632"/>
  <unicode hex="00C2"/>
  <note>
Acircumflex
</note>
  <outline>
    <component base="A"/>
    <component base="circumflexcomb.case" xOffset="122" yOffset="40"/>
    <contour>
      <point x="554" y="0" type="move" name="ogonek"/>
    </contour>
    <contour>
      <point x="386" y="690" type="move" name="top"/>
    </contour>
  </outline>
</glyph>
<glyph name="AE" format="1">
  <advance width="916"/>
  <unicode hex="00C6"/>
  <note>
AE
</note>
  <outline>
    <contour>
      <point x="-36" y="0" type="line"/>
      <point x="38" y="0" type="line"/>
      <point x="457" y="633" type="line"/>
      <point x="479" y="633" type="line"/>
      <point x="536" y="690" type="line"/>
      <point x="424" y="690" type="line"/>
    </contour>
    <contour>
      <point x="129" y="188" type="line"/>
      <point x="443" y="188" type="line"/>
      <point x="451" y="238" type="line"/>
      <point x="151" y="238" type="line"/>
    </contour>
    <contour>
      <point x="296" y="637" type="line"/>
      <point x="436" y="637" type="line"/>
      <point x="445" y="690" type="line"/>
      <point x="305" y="690" type="line"/>
    </contour>
    <contour>
      <point x="830" y="494" type="line"/>
      <point x="886" y="494" type="line"/>
      <point x="919" y="690" type="line"/>
      <point x="488" y="690" type="line"/>
      <point x="372" y="0" type="line"/>
      <point x="807" y="0" type="line"/>
      <point x="841" y="200" type="line"/>
      <point x="785" y="200" type="line"/>
      <point x="760" y="53" type="line"/>
      <point x="445" y="53" type="line"/>
      <point x="491" y="327" type="line"/>
      <point x="762" y="327" type="line"/>
      <point x="770" y="377" type="line"/>
      <point x="500" y="377" type="line"/>
      <point x="543" y="637" type="line"/>
      <point x="854" y="637" type="line"/>
    </contour>
    <contour>
      <point x="807" y="0" type="move" name="ogonek"/>
    </contour>
    <contour>
      <point x="701" y="690" type="move" name="top"/>
    </contour>
  </outline>
</glyph>
<glyph name="Ntilde" format="1">
  <advance width="685"/>
  <unicode hex="00D1"/>
  <note>
Ntilde
</note>
  <outline>
    <component base="N"/>
    <component base="tildecomb.case" xOffset="154" yOffset="40"/>
    <contour>
      <point x="418" y="690" type="move" name="top"/>
    </contour>
  </outline>
</glyph>
<glyph name="Odieresis" format="1">
  <advance width="691"/>
  <unicode hex="00D6"/>
  <outline>
    <component base="O"/>
    <component base="dieresiscomb.case" xOffset="151" yOffset="40"/>
    <contour>
      <point x="415" y="690" type="move" name="top"/>
    </contour>
  </outline>
</glyph>
<glyph name="Thorn" format="1">
  <advance width="641"/>
  <unicode hex="00DE"/>
  <note>
Thorn
</note>
  <outline>
    <contour>
      <point x="143" y="158" type="line"/>
      <point x="392" y="158" type="line" smooth="yes"/>
      <point x="508" y="158"/>
      <point x="575" y="214"/>
      <point x="595" y="338" type="curve" smooth="yes"/>
      <point x="616" y="463"/>
      <point x="552" y="546"/>
      <point x="435" y="546" type="curve" smooth="yes"/>
      <point x="202" y="546" type="line"/>
      <point x="194" y="495" type="line"/>
      <point x="423" y="495" type="line" smooth="yes"/>
      <point x="505" y="495"/>
      <point x="548" y="449"/>
      <point x="535" y="367" type="curve" smooth="yes"/>
      <point x="528" y="330" type="line" smooth="yes"/>
      <point x="515" y="250"/>
      <point x="474" y="209"/>
      <point x="392" y="209" type="curve" smooth="yes"/>
      <point x="150" y="209" type="line"/>
    </contour>
    <contour>
      <point x="81" y="0" type="line"/>
      <point x="145" y="0" type="line"/>
      <point x="261" y="690" type="line"/>
      <point x="106" y="690" type="line"/>
      <point x="97" y="637" type="line"/>
      <point x="188" y="637" type="line"/>
    </contour>
  </outline>
</glyph>
<glyph name="eth" format="1">
  <advance width="578"/>
  <unicode hex="00F0"/>
  <note>
eth
</note>
  <outline>
    <contour>
      <point x="264" y="-10" type="curve" smooth="yes"/>
      <point x="399" y="-10"/>
      <point x="488" y="76"/>
      <point x="518" y="246" type="curve" smooth="yes"/>
      <point x="552" y="445"/>
      <point x="472" y="593"/>
      <point x="389" y="690" type="curve"/>
      <point x="325" y="690" type="line"/>
      <point x="404" y="609"/>
      <point x="457" y="506"/>
      <point x="469" y="429" type="curve"/>
      <point x="447" y="429" type="line"/>
      <point x="423" y="483"/>
      <point x="350" y="504"/>
      <point x="290" y="504" type="curve" smooth="yes"/>
      <point x="167" y="504"/>
      <point x="81" y="420"/>
      <point x="54" y="261" type="curve" smooth="yes"/>
      <point x="25" y="83"/>
      <point x="116" y="-10"/>
    </contour>
    <contour>
      <point x="267" y="45" type="curve" smooth="yes"/>
      <point x="152" y="45"/>
      <point x="95" y="107"/>
      <point x="115" y="232" type="curve" smooth="yes"/>
      <point x="121" y="268" type="line" smooth="yes"/>
      <point x="142" y="393"/>
      <point x="193" y="449"/>
      <point x="307" y="449" type="curve" smooth="yes"/>
      <point x="420" y="449"/>
      <point x="475" y="386"/>
      <point x="455" y="262" type="curve" smooth="yes"/>
      <point x="449" y="227" type="line" smooth="yes"/>
      <point x="429" y="101"/>
      <point x="378" y="45"/>
    </contour>
    <contour>
      <point x="266" y="542" type="line"/>
      <point x="552" y="598" type="line"/>
      <point x="559" y="644" type="line"/>
      <point x="274" y="588" type="line"/>
    </contour>
  </outline>
</glyph>
<glyph name="divide" format="1">
  <advance width="474"/>
  <unicode hex="00F7"/>
  <outline>
    <contour>
      <point x="233" y="460" type="line"/>
      <point x="304" y="460" type="line"/>
      <point x="316" y="531" type="line"/>
      <point x="245" y="531" type="line"/>
    </contour>
    <contour>
      <point x="181" y="143" type="line"/>
      <point x="251" y="143" type="line"/>
      <point x="263" y="214" type="line"/>
      <point x="192" y="214" type="line"/>
    </contour>
    <contour>
      <point x="47" y="312" type="line"/>
      <point x="442" y="312" type="line"/>
      <point x="451" y="362" type="line"/>
      <point x="56" y="362" type="line"/>
    </contour>
  </outline>
</glyph>
<glyph name="ugrave" format="1">
  <advance width="604"/>
  <unicode hex="00F9"/>
  <note>
ugrave
</note>
  <outline>
    <component base="u"/>
    <component base="gravecomb" xOffset="100"/>
    <contour>
      <point x="345" y="534" type="move" name="top"/>
    </contour>
  </outline>
</glyph>
<glyph name="thorn" format="1">
  <advance width="596"/>
  <unicode hex="00FE"/>
  <note>
thorn
</note>
  <outline>
    <contour>
      <point x="22" y="-132" type="line"/>
      <point x="84" y="-132" type="line"/>
      <point x="100" y="-37" type="line" smooth="yes"/>
      <point x="105" y="-6"/>
      <point x="110" y="26"/>
      <point x="114" y="89" type="curve"/>
      <point x="136" y="89" type="line"/>
      <point x="164" y="21"/>
      <point x="220" y="-10"/>
      <point x="297" y="-10" type="curve" smooth="yes"/>
      <point x="427" y="-10"/>
      <point x="508" y="74"/>
      <point x="539" y="253" type="curve" smooth="yes"/>
      <point x="569" y="433"/>
      <point x="498" y="544"/>
      <point x="356" y="544" type="curve" smooth="yes"/>
      <point x="282" y="544"/>
      <point x="233" y="513"/>
      <point x="192" y="445" type="curve"/>
      <point x="170" y="445" type="line"/>
      <point x="188" y="508"/>
      <point x="196" y="540"/>
      <point x="201" y="571" type="curve" smooth="yes"/>
      <point x="222" y="690" type="line"/>
      <point x="81" y="690" type="line"/>
      <point x="72" y="639" type="line"/>
      <point x="151" y="639" type="line"/>
    </contour>
    <contour>
      <point x="287" y="45" type="curve" smooth="yes"/>
      <point x="175" y="45"/>
      <point x="124" y="110"/>
      <point x="147" y="245" type="curve" smooth="yes"/>
      <point x="156" y="295" type="line" smooth="yes"/>
      <point x="178" y="429"/>
      <point x="228" y="489"/>
      <point x="339" y="489" type="curve" smooth="yes"/>
      <point x="451" y="489"/>
      <point x="501" y="424"/>
      <point x="479" y="289" type="curve" smooth="yes"/>
      <point x="470" y="239" type="line" smooth="yes"/>
      <point x="447" y="105"/>
      <point x="398" y="45"/>
    </contour>
  </outline>
</glyph>
<glyph name="Aogonek" format="1">
  <advance width="632"/>
  <unicode hex="0104"/>
  <outline>
    <contour>
      <point x="-7" y="0" type="line"/>
      <point x="62" y="0" type="line"/>
      <point x="371" y="633" type="line"/>
      <point x="393" y="633" type="line"/>
      <point x="489" y="0" type="line"/>
      <point x="554" y="0" type="line"/>
      <point x="447" y="690" type="line"/>
      <point x="332" y="690" type="line"/>
    </contour>
    <contour>
      <point x="123" y="188" type="line"/>
      <point x="487" y="188" type="line"/>
      <point x="481" y="238" type="line"/>
      <point x="145" y="238" type="line"/>
    </contour>
    <contour>
      <point x="214" y="637" type="line"/>
      <point x="349" y="637" type="line"/>
      <point x="358" y="690" type="line"/>
      <point x="223" y="690" type="line"/>
    </contour>
    <contour>
      <point x="452" y="-143" type="curve" smooth="yes"/>
      <point x="537" y="-143" type="line"/>
      <point x="544" y="-100" type="line"/>
      <point x="462" y="-100" type="line" smooth="yes"/>
      <point x="441" y="-100"/>
      <point x="432" y="-92"/>
      <point x="435" y="-75" type="curve" smooth="yes"/>
      <point x="439" y="-53"/>
      <point x="466" y="-34"/>
      <point x="554" y="0" type="curve"/>
      <point x="492" y="19" type="line"/>
      <point x="487" y="-11" type="line"/>
      <point x="419" y="-29"/>
      <point x="393" y="-45"/>
      <point x="387" y="-83" type="curve" smooth="yes"/>
      <point x="382" y="-119"/>
      <point x="404" y="-143"/>
    </contour>
    <contour>
      <point x="554" y="0" type="move" name="ogonek"/>
    </contour>
    <contour>
      <point x="386" y="690" type="move" name="top"/>
    </contour>
  </outline>
</glyph>
<glyph name="eogonek" format="1">
  <advance width="570"/>
  <unicode hex="0119"/>
  <outline>
    <contour>
      <point x="262" y="-10" type="curve" smooth="yes"/>
      <point x="373" y="-10"/>
      <point x="452" y="47"/>
      <point x="490" y="161" type="curve"/>
      <point x="425" y="161" type="line"/>
      <point x="425" y="161" type="line"/>
      <point x="417" y="111"/>
      <point x="379" y="45"/>
      <point x="264" y="45" type="curve" smooth="yes"/>
      <point x="148" y="45"/>
      <point x="96" y="111"/>
      <point x="119" y="246" type="curve" smooth="yes"/>
      <point x="127" y="294" type="line" smooth="yes"/>
      <point x="149" y="430"/>
      <point x="201" y="490"/>
      <point x="316" y="490" type="curve" smooth="yes"/>
      <point x="431" y="490"/>
      <point x="484" y="424"/>
      <point x="461" y="288" type="curve" smooth="yes"/>
      <point x="458" y="270" type="line"/>
      <point x="492" y="307" type="line"/>
      <point x="108" y="307" type="line"/>
      <point x="100" y="261" type="line"/>
      <point x="514" y="261" type="line"/>
      <point x="516" y="275" type="line" smooth="yes"/>
      <point x="544" y="450"/>
      <point x="466" y="544"/>
      <point x="320" y="544" type="curve" smooth="yes"/>
      <point x="183" y="544"/>
      <point x="87" y="455"/>
      <point x="58" y="280" type="curve" smooth="yes"/>
      <point x="27" y="92"/>
      <point x="106" y="-10"/>
    </contour>
    <contour>
      <point x="298" y="-143" type="curve" smooth="yes"/>
      <point x="387" y="-143" type="line"/>
      <point x="394" y="-100" type="line"/>
      <point x="308" y="-100" type="line" smooth="yes"/>
      <point x="287" y="-100"/>
      <point x="278" y="-92"/>
      <point x="281" y="-75" type="curve" smooth="yes"/>
      <point x="285" y="-53"/>
      <point x="315" y="-23"/>
      <point x="393" y="33" type="curve"/>
      <point x="301" y="13" type="line"/>
      <point x="296" y="-22" type="line"/>
      <point x="258" y="-36"/>
      <point x="239" y="-50"/>
      <point x="233" y="-83" type="curve" smooth="yes"/>
      <point x="228" y="-119"/>
      <point x="250" y="-143"/>
    </contour>
    <contour>
      <point x="320" y="0" type="move" name="ogonek"/>
    </contour>
    <contour>
      <point x="335" y="534" type="move" name="top"/>
    </contour>
  </outline>
</glyph>
<glyph name="nacute" format="1">
  <advance width="603"/>
  <unicode hex="0144"/>
  <outline>
    <component base="n"/>
    <component base="acutecomb" xOffset="105"/>
    <contour>
      <point x="350" y="534" type="move" name="top"/>
    </contour>
  </outline>
</glyph>
<glyph name="OE" format="1">
  <advance width="989"/>
  <unicode hex="0152"/>
  <note>
OE
</note>
  <outline>
    <contour>
      <point x="308" y="0" type="curve" smooth="yes"/>
      <point x="475" y="0" type="line"/>
      <point x="485" y="53" type="line"/>
      <point x="320" y="53" type="line" smooth="yes"/>
      <point x="174" y="53"/>
      <point x="105" y="129"/>
      <point x="134" y="301" type="curve" smooth="yes"/>
      <point x="150" y="394" type="line" smooth="yes"/>
      <point x="179" y="567"/>
      <point x="247" y="637"/>
      <point x="393" y="637" type="curve" smooth="yes"/>
      <point x="583" y="637" type="line"/>
      <point x="593" y="690" type="line"/>
      <point x="395" y="690" type="line" smooth="yes"/>
      <point x="209" y="690"/>
      <point x="116" y="601"/>
      <point x="76" y="360" type="curve" smooth="yes"/>
      <point x="36" y="119"/>
      <point x="122" y="0"/>
    </contour>
    <contour>
      <point x="905" y="494" type="line"/>
      <point x="961" y="494" type="line"/>
      <point x="994" y="690" type="line"/>
      <point x="563" y="690" type="line"/>
      <point x="447" y="0" type="line"/>
      <point x="882" y="0" type="line"/>
      <point x="916" y="200" type="line"/>
      <point x="860" y="200" type="line"/>
      <point x="835" y="53" type="line"/>
      <point x="520" y="53" type="line"/>
      <point x="566" y="327" type="line"/>
      <point x="836" y="327" type="line"/>
      <point x="845" y="377" type="line"/>
      <point x="574" y="377" type="line"/>
      <point x="618" y="637" type="line"/>
      <point x="929" y="637" type="line"/>
    </contour>
    <contour>
      <point x="882" y="0" type="move" name="ogonek"/>
    </contour>
    <contour>
      <point x="776" y="690" type="move" name="top"/>
    </contour>
  </outline>
</glyph>
<glyph name="oe" format="1">
  <advance width="962"/>
  <unicode hex="0153"/>
  <note>
oe
</note>
  <outline>
    <contour>
      <point x="263" y="-10" type="curve" smooth="yes"/>
      <point x="359" y="-10"/>
      <point x="419" y="32"/>
      <point x="454" y="92" type="curve"/>
      <point x="476" y="92" type="line"/>
      <point x="510" y="13"/>
      <point x="574" y="-10"/>
      <point x="658" y="-10" type="curve" smooth="yes"/>
      <point x="766" y="-10"/>
      <point x="845" y="47"/>
      <point x="883" y="161" type="curve"/>
      <point x="818" y="161" type="line"/>
      <point x="818" y="161" type="line"/>
      <point x="810" y="111"/>
      <point x="772" y="45"/>
      <point x="660" y="45" type="curve" smooth="yes"/>
      <point x="548" y="45"/>
      <point x="496" y="111"/>
      <point x="519" y="246" type="curve" smooth="yes"/>
      <point x="527" y="294" type="line" smooth="yes"/>
      <point x="549" y="430"/>
      <point x="600" y="490"/>
      <point x="712" y="490" type="curve" smooth="yes"/>
      <point x="824" y="490"/>
      <point x="876" y="424"/>
      <point x="854" y="288" type="curve" smooth="yes"/>
      <point x="850" y="268" type="line"/>
      <point x="895" y="307" type="line"/>
      <point x="507" y="307" type="line"/>
      <point x="499" y="261" type="line"/>
      <point x="907" y="261" type="line"/>
      <point x="909" y="275" type="line" smooth="yes"/>
      <point x="936" y="450"/>
      <point x="859" y="544"/>
      <point x="716" y="544" type="curve" smooth="yes"/>
      <point x="630" y="544"/>
      <point x="558" y="500"/>
      <point x="524" y="442" type="curve"/>
      <point x="502" y="442" type="line"/>
      <point x="477" y="502"/>
      <point x="423" y="544"/>
      <point x="316" y="544" type="curve" smooth="yes"/>
      <point x="180" y="544"/>
      <point x="87" y="452"/>
      <point x="58" y="281" type="curve" smooth="yes"/>
      <point x="30" y="110"/>
      <point x="101" y="-10"/>
    </contour>
    <contour>
      <point x="263" y="45" type="curve" smooth="yes"/>
      <point x="148" y="45"/>
      <point x="96" y="111"/>
      <point x="119" y="246" type="curve" smooth="yes"/>
      <point x="127" y="294" type="line" smooth="yes"/>
      <point x="150" y="429"/>
      <point x="201" y="489"/>
      <point x="316" y="489" type="curve" smooth="yes"/>
      <point x="430" y="489"/>
      <point x="482" y="424"/>
      <point x="460" y="288" type="curve" smooth="yes"/>
      <point x="452" y="241" type="line" smooth="yes"/>
      <point x="429" y="105"/>
      <point x="378" y="45"/>
    </contour>
  </outline>
</glyph>
<glyph name="Ydieresis" format="1">
  <advance width="614"/>
  <unicode hex="0178"/>
  <note>
Ydieresis
</note>
  <outline>
    <component base="Y"/>
    <component base="dieresiscomb.case" xOffset="112" yOffset="40"/>
    <contour>
      <point x="376" y="690" type="move" name="top"/>
    </contour>
  </outline>
</glyph>
<glyph name="florin" format="1">
  <advance width="459"/>
  <unicode hex="0192"/>
  <outline>
    <contour>
      <point x="3" y="0" type="line"/>
      <point x="164" y="0" type="line" smooth="yes"/>
      <point x="192" y="0"/>
      <point x="210" y="15"/>
      <point x="214" y="43" type="curve" smooth="yes"/>
      <point x="314" y="637" type="line"/>
      <point x="480" y="637" type="line"/>
      <point x="489" y="690" type="line"/>
      <point x="304" y="690" type="line" smooth="yes"/>
      <point x="277" y="690"/>
      <point x="259" y="675"/>
      <point x="255" y="647" type="curve" smooth="yes"/>
      <point x="155" y="53" type="line"/>
      <point x="12" y="53" type="line"/>
    </contour>
    <contour>
      <point x="72" y="410" type="line"/>
      <point x="442" y="410" type="line"/>
      <point x="450" y="458" type="line"/>
      <point x="80" y="458" type="line"/>
    </contour>
  </outline>
</glyph>
<glyph name="hungarumlaut" format="1">
  <advance width="400"/>
  <unicode hex="02DD"/>
  <outline>
    <component base="acutecomb" xOffset="-64" identifier="C275FF14"/>
    <component base="acutecomb" xOffset="64" identifier="58717C22"/>
    <contour>
      <point x="181" y="534" type="move" name="_top"/>
    </contour>
  </outline>
</glyph>
<glyph name="acutecomb" format="1">
  <advance width="0"/>
  <unicode hex="0301"/>
  <note>
acute
</note>
  <outline>
    <contour>
      <point x="208" y="578" type="line"/>
      <point x="255" y="578" type="line"/>
      <point x="359" y="701" type="line"/>
      <point x="289" y="701" type="line"/>
    </contour>
    <contour>
      <point x="245" y="534" type="move" name="_top"/>
    </contour>
  </outline>
</glyph>
<glyph name="ringcomb" format="1">
  <advance width="0"/>
  <unicode hex="030A"/>
  <note>
ring
</note>
  <outline>
    <contour>
      <point x="257" y="570" type="curve" smooth="yes"/>
      <point x="308" y="570"/>
      <point x="347" y="600"/>
      <point x="355" y="651" type="curve" smooth="yes"/>
      <point x="364" y="709"/>
      <point x="328" y="743"/>
      <point x="273" y="743" type="curve" smooth="yes"/>
      <point x="222" y="743"/>
      <point x="184" y="713"/>
      <point x="175" y="662" type="curve" smooth="yes"/>
      <point x="166" y="604"/>
      <point x="202" y="570"/>
    </contour>
    <contour>
      <point x="260" y="608" type="curve" smooth="yes"/>
      <point x="230" y="608"/>
      <point x="215" y="626"/>
      <point x="220" y="657" type="curve" smooth="yes"/>
      <point x="221" y="663" type="line" smooth="yes"/>
      <point x="226" y="690"/>
      <point x="240" y="705"/>
      <point x="270" y="705" type="curve" smooth="yes"/>
      <point x="300" y="705"/>
      <point x="315" y="687"/>
      <point x="310" y="656" type="curve" smooth="yes"/>
      <point x="309" y="650" type="line" smooth="yes"/>
      <point x="304" y="623"/>
      <point x="290" y="608"/>
    </contour>
    <contour>
      <point x="245" y="534" type="move" name="_top"/>
    </contour>
  </outline>
</glyph>
<glyph name="cedillacomb" format="1">
  <advance width="0"/>
  <unicode hex="0327"/>
  <note>
cedilla
</note>
  <outline>
    <contour>
      <point x="62" y="-164" type="line"/>
      <point x="175" y="-164" type="line" smooth="yes"/>
      <point x="224" y="-164"/>
      <point x="253" y="-145"/>
      <point x="260" y="-102" type="curve" smooth="yes"/>
      <point x="267" y="-60"/>
      <point x="242" y="-34"/>
      <point x="189" y="-34" type="curve" smooth="yes"/>
      <point x="155" y="-34" type="line"/>
      <point x="170" y="-50" type="line"/>
      <point x="180" y="10" type="line"/>
      <point x="134" y="10" type="line"/>
      <point x="120" y="-71" type="line"/>
      <point x="183" y="-71" type="line" smooth="yes"/>
      <point x="203" y="-71"/>
      <point x="213" y="-80"/>
      <point x="211" y="-97" type="curve" smooth="yes"/>
      <point x="208" y="-114"/>
      <point x="197" y="-121"/>
      <point x="176" y="-121" type="curve" smooth="yes"/>
      <point x="69" y="-121" type="line"/>
    </contour>
    <contour>
      <point x="155" y="0" type="move" name="_bottom"/>
    </contour>
  </outline>
</glyph>
<glyph name="pi" format="1">
  <advance width="656"/>
  <unicode hex="03C0"/>
  <outline>
    <contour>
      <point x="457" y="0" type="curve" smooth="yes"/>
      <point x="567" y="0" type="line"/>
      <point x="575" y="51" type="line"/>
      <point x="477" y="51" type="line"/>
      <point x="554" y="513" type="line"/>
      <point x="493" y="513" type="line"/>
      <point x="415" y="51" type="line" smooth="yes"/>
      <point x="410" y="18"/>
      <point x="424" y="0"/>
    </contour>
    <contour>
      <point x="80" y="0" type="line"/>
      <point x="142" y="0" type="line"/>
      <point x="228" y="514" type="line"/>
      <point x="166" y="514" type="line"/>
    </contour>
    <contour>
      <point x="63" y="483" type="line"/>
      <point x="648" y="483" type="line"/>
      <point x="657" y="534" type="line"/>
      <point x="72" y="534" type="line"/>
    </contour>
  </outline>
</glyph>
<glyph name="endash" format="1">
  <advance width="559"/>
  <unicode hex="2013"/>
  <outline>
    <contour>
      <point x="57" y="259" type="line"/>
      <point x="497" y="259" type="line"/>
      <point x="506" y="309" type="line"/>
      <point x="66" y="309" type="line"/>
    </contour>
  </outline>
</glyph>
<glyph name="quoteleft" format="1">
  <advance width="238"/>
  <unicode hex="2018"/>
  <outline>
    <contour>
      <point x="233" y="690" type="line"/>
      <point x="193" y="690" type="line"/>
      <point x="130" y="592" type="line"/>
      <point x="117" y="512" type="line"/>
      <point x="199" y="512" type="line"/>
      <point x="213" y="592" type="line"/>
      <point x="173" y="592" type="line"/>
    </contour>
  </outline>
</glyph>
<glyph name="quotedblleft" format="1">
  <advance width="400"/>
  <unicode hex="201C"/>
  <outline>
    <contour>
      <point x="384" y="690" type="line"/>
      <point x="344" y="690" type="line"/>
      <point x="281" y="592" type="line"/>
      <point x="268" y="512" type="line"/>
      <point x="350" y="512" type="line"/>
      <point x="364" y="592" type="line"/>
      <point x="324" y="592" type="line"/>
    </contour>
    <contour>
      <point x="244" y="690" type="line"/>
      <point x="204" y="690" type="line"/>
      <point x="141" y="592" type="line"/>
      <point x="128" y="512" type="line"/>
      <point x="210" y="512" type="line"/>
      <point x="224" y="592" type="line"/>
      <point x="184" y="592" type="line"/>
    </contour>
  </outline>
</glyph>
<glyph name="dagger" format="1">
  <advance width="429"/>
  <unicode hex="2020"/>
  <outline>
    <contour>
      <point x="64" y="461" type="line"/>
      <point x="429" y="461" type="line"/>
      <point x="438" y="515" type="line"/>
      <point x="361" y="515" type="line"/>
      <point x="276" y="492" type="line"/>
      <point x="271" y="497" type="line"/>
      <point x="298" y="591" type="line"/>
      <point x="315" y="690" type="line"/>
      <point x="255" y="690" type="line"/>
      <point x="238" y="591" type="line"/>
      <point x="235" y="497" type="line"/>
      <point x="228" y="492" type="line"/>
      <point x="151" y="515" type="line"/>
      <point x="73" y="515" type="line"/>
    </contour>
    <contour>
      <point x="149" y="0" type="line"/>
      <point x="189" y="0" type="line"/>
      <point x="257" y="338" type="line"/>
      <point x="265" y="477" type="line"/>
      <point x="234" y="477" type="line"/>
      <point x="195" y="338" type="line"/>
    </contour>
  </outline>
</glyph>
<glyph name="perthousand" format="1">
  <advance width="1189"/>
  <unicode hex="2030"/>
  <outline>
    <contour>
      <point x="49" y="0" type="line"/>
      <point x="117" y="0" type="line"/>
      <point x="395" y="322" type="line"/>
      <point x="327" y="322" type="line"/>
    </contour>
    <contour>
      <point x="412" y="368" type="line"/>
      <point x="480" y="368" type="line"/>
      <point x="758" y="690" type="line"/>
      <point x="690" y="690" type="line"/>
    </contour>
    <contour>
      <point x="250" y="360" type="curve" smooth="yes"/>
      <point x="358" y="360"/>
      <point x="424" y="429"/>
      <point x="439" y="520" type="curve" smooth="yes"/>
      <point x="457" y="629"/>
      <point x="393" y="700"/>
      <point x="280" y="700" type="curve" smooth="yes"/>
      <point x="171" y="700"/>
      <point x="106" y="631"/>
      <point x="91" y="540" type="curve" smooth="yes"/>
      <point x="73" y="431"/>
      <point x="137" y="360"/>
    </contour>
    <contour>
      <point x="251" y="410" type="curve" smooth="yes"/>
      <point x="172" y="410"/>
      <point x="135" y="452"/>
      <point x="147" y="522" type="curve" smooth="yes"/>
      <point x="151" y="544" type="line" smooth="yes"/>
      <point x="162" y="614"/>
      <point x="199" y="650"/>
      <point x="279" y="650" type="curve" smooth="yes"/>
      <point x="358" y="650"/>
      <point x="395" y="608"/>
      <point x="383" y="538" type="curve" smooth="yes"/>
      <point x="379" y="516" type="line" smooth="yes"/>
      <point x="368" y="446"/>
      <point x="331" y="410"/>
    </contour>
    <contour>
      <point x="527" y="-10" type="curve" smooth="yes"/>
      <point x="636" y="-10"/>
      <point x="701" y="59"/>
      <point x="716" y="150" type="curve" smooth="yes"/>
      <point x="734" y="259"/>
      <point x="670" y="330"/>
      <point x="558" y="330" type="curve" smooth="yes"/>
      <point x="448" y="330"/>
      <point x="384" y="261"/>
      <point x="368" y="170" type="curve" smooth="yes"/>
      <point x="351" y="61"/>
      <point x="414" y="-10"/>
    </contour>
    <contour>
      <point x="528" y="40" type="curve" smooth="yes"/>
      <point x="449" y="40"/>
      <point x="412" y="82"/>
      <point x="424" y="152" type="curve" smooth="yes"/>
      <point x="428" y="174" type="line" smooth="yes"/>
      <point x="439" y="244"/>
      <point x="476" y="280"/>
      <point x="556" y="280" type="curve" smooth="yes"/>
      <point x="636" y="280"/>
      <point x="672" y="238"/>
      <point x="660" y="168" type="curve" smooth="yes"/>
      <point x="657" y="146" type="line" smooth="yes"/>
      <point x="645" y="76"/>
      <point x="608" y="40"/>
    </contour>
    <contour>
      <point x="941" y="-10" type="curve" smooth="yes"/>
      <point x="1050" y="-10"/>
      <point x="1115" y="59"/>
      <point x="1130" y="150" type="curve" smooth="yes"/>
      <point x="1149" y="259"/>
      <point x="1084" y="330"/>
      <point x="972" y="330" type="curve" smooth="yes"/>
      <point x="862" y="330"/>
      <point x="798" y="261"/>
      <point x="783" y="170" type="curve" smooth="yes"/>
      <point x="765" y="61"/>
      <point x="828" y="-10"/>
    </contour>
    <contour>
      <point x="943" y="40" type="curve" smooth="yes"/>
      <point x="863" y="40"/>
      <point x="827" y="82"/>
      <point x="838" y="152" type="curve" smooth="yes"/>
      <point x="842" y="174" type="line" smooth="yes"/>
      <point x="854" y="244"/>
      <point x="891" y="280"/>
      <point x="970" y="280" type="curve" smooth="yes"/>
      <point x="1050" y="280"/>
      <point x="1086" y="238"/>
      <point x="1075" y="168" type="curve" smooth="yes"/>
      <point x="1071" y="146" type="line" smooth="yes"/>
      <point x="1059" y="76"/>
      <point x="1022" y="40"/>
    </contour>
  </outline>
</glyph>
<glyph name="euro" format="1">
  <advance width="711"/>
  <unicode hex="20AC"/>
  <outline>
    <contour>
      <point x="373" y="-10" type="curve" smooth="yes"/>
      <point x="508" y="-10"/>
      <point x="606" y="65"/>
      <point x="654" y="220" type="curve"/>
      <point x="589" y="220" type="line"/>
      <point x="588" y="215" type="line" smooth="yes"/>
      <point x="573" y="131"/>
      <point x="512" y="47"/>
      <point x="375" y="47" type="curve" smooth="yes"/>
      <point x="240" y="47"/>
      <point x="172" y="130"/>
      <point x="200" y="301" type="curve" smooth="yes"/>
      <point x="216" y="394" type="line" smooth="yes"/>
      <point x="245" y="566"/>
      <point x="315" y="643"/>
      <point x="450" y="643" type="curve" smooth="yes"/>
      <point x="585" y="643"/>
      <point x="633" y="559"/>
      <point x="627" y="491" type="curve" smooth="yes"/>
      <point x="627" y="484" type="line"/>
      <point x="690" y="484" type="line"/>
      <point x="678" y="626"/>
      <point x="591" y="700"/>
      <point x="453" y="700" type="curve" smooth="yes"/>
      <point x="295" y="700"/>
      <point x="181" y="591"/>
      <point x="142" y="361" type="curve" smooth="yes"/>
      <point x="102" y="119"/>
      <point x="190" y="-10"/>
    </contour>
    <contour>
      <point x="54" y="269" type="line"/>
      <point x="475" y="269" type="line"/>
      <point x="483" y="318" type="line"/>
      <point x="63" y="318" type="line"/>
    </contour>
    <contour>
      <point x="74" y="386" type="line"/>
      <point x="495" y="386" type="line"/>
      <point x="503" y="435" type="line"/>
      <point x="82" y="435" type="line"/>
    </contour>
  </outline>
</glyph>
<glyph name="literSign" format="1">
  <advance width="587"/>
  <unicode hex="2113"/>
  <outline>
    <contour>
      <point x="305" y="-10" type="curve" smooth="yes"/>
      <point x="402" y="-10"/>
      <point x="474" y="45"/>
      <point x="513" y="161" type="curve"/>
      <point x="449" y="161" type="line"/>
      <point x="449" y="159" type="line" smooth="yes"/>
      <point x="441" y="111"/>
      <point x="406" y="45"/>
      <point x="307" y="45" type="curve" smooth="yes"/>
      <point x="208" y="45"/>
      <point x="174" y="111"/>
      <point x="201" y="278" type="curve" smooth="yes"/>
      <point x="223" y="417" type="line" smooth="yes"/>
      <point x="250" y="585"/>
      <point x="292" y="645"/>
      <point x="397" y="645" type="curve" smooth="yes"/>
      <point x="486" y="645"/>
      <point x="532" y="595"/>
      <point x="516" y="505" type="curve" smooth="yes"/>
      <point x="514" y="492" type="line" smooth="yes"/>
      <point x="502" y="418"/>
      <point x="465" y="377"/>
      <point x="353" y="340" type="curve" smooth="yes"/>
      <point x="30" y="231" type="line"/>
      <point x="21" y="174" type="line"/>
      <point x="375" y="295" type="line" smooth="yes"/>
      <point x="510" y="342"/>
      <point x="562" y="394"/>
      <point x="578" y="494" type="curve" smooth="yes"/>
      <point x="600" y="628"/>
      <point x="521" y="700"/>
      <point x="400" y="700" type="curve" smooth="yes"/>
      <point x="261" y="700"/>
      <point x="189" y="608"/>
      <point x="147" y="357" type="curve" smooth="yes"/>
      <point x="109" y="124"/>
      <point x="134" y="-10"/>
    </contour>
  </outline>
</glyph>
<glyph name="estimated" format="1">
  <advance width="884"/>
  <unicode hex="212E"/>
  <outline>
    <contour>
      <point x="445" y="679" type="curve" smooth="yes"/>
      <point x="530" y="679"/>
      <point x="612" y="646"/>
      <point x="675" y="587" type="curve" smooth="yes"/>
      <point x="688" y="575"/>
      <point x="695" y="557"/>
      <point x="695" y="539" type="curve" smooth="yes"/>
      <point x="695" y="365" type="line" smooth="yes"/>
      <point x="695" y="359"/>
      <point x="690" y="355"/>
      <point x="685" y="355" type="curve" smooth="yes"/>
      <point x="205" y="355" type="line" smooth="yes"/>
      <point x="200" y="355"/>
      <point x="195" y="359"/>
      <point x="195" y="365" type="curve" smooth="yes"/>
      <point x="195" y="539" type="line" smooth="yes"/>
      <point x="195" y="557"/>
      <point x="202" y="575"/>
      <point x="215" y="587" type="curve" smooth="yes"/>
      <point x="278" y="646"/>
      <point x="360" y="679"/>
    </contour>
    <contour>
      <point x="445" y="700" type="curve" smooth="yes"/>
      <point x="227" y="700"/>
      <point x="50" y="542"/>
      <point x="50" y="345" type="curve" smooth="yes"/>
      <point x="50" y="149"/>
      <point x="227" y="-10"/>
      <point x="445" y="-10" type="curve" smooth="yes"/>
      <point x="567" y="-10"/>
      <point x="682" y="40"/>
      <point x="757" y="127" type="curve"/>
      <point x="697" y="127" type="line"/>
      <point x="634" y="54"/>
      <point x="542" y="11"/>
      <point x="445" y="11" type="curve" smooth="yes"/>
      <point x="360" y="11"/>
      <point x="278" y="44"/>
      <point x="215" y="103" type="curve" smooth="yes"/>
      <point x="202" y="115"/>
      <point x="195" y="133"/>
      <point x="195" y="151" type="curve" smooth="yes"/>
      <point x="195" y="325" type="line" smooth="yes"/>
      <point x="195" y="330"/>
      <point x="200" y="335"/>
      <point x="205" y="335" type="curve" smooth="yes"/>
      <point x="840" y="335" type="line"/>
      <point x="840" y="345" type="line" smooth="yes"/>
      <point x="840" y="542"/>
      <point x="663" y="700"/>
    </contour>
  </outline>
</glyph>
<glyph name="product" format="1">
  <advance width="732"/>
  <unicode hex="220F"/>
  <outline>
    <contour>
      <point x="486" y="0" type="line"/>
      <point x="549" y="0" type="line"/>
      <point x="656" y="637" type="line"/>
      <point x="764" y="637" type="line"/>
      <point x="773" y="690" type="line"/>
      <point x="102" y="690" type="line"/>
      <point x="93" y="637" type="line"/>
      <point x="200" y="637" type="line"/>
      <point x="93" y="0" type="line"/>
      <point x="157" y="0" type="line"/>
      <point x="264" y="637" type="line"/>
      <point x="593" y="637" type="line"/>
    </contour>
  </outline>
</glyph>
<glyph name="minus" format="1">
  <advance width="474"/>
  <unicode hex="2212"/>
  <outline>
    <contour>
      <point x="47" y="312" type="line"/>
      <point x="442" y="312" type="line"/>
      <point x="451" y="362" type="line"/>
      <point x="56" y="362" type="line"/>
    </contour>
  </outline>
</glyph>
<glyph name="infinity" format="1">
  <advance width="672"/>
  <unicode hex="221E"/>
  <outline>
    <contour>
      <point x="190" y="212" type="curve" smooth="yes"/>
      <point x="244" y="212"/>
      <point x="295" y="239"/>
      <point x="333" y="298" type="curve"/>
      <point x="354" y="298" type="line"/>
      <point x="380" y="237"/>
      <point x="429" y="212"/>
      <point x="482" y="212" type="curve" smooth="yes"/>
      <point x="552" y="212"/>
      <point x="602" y="257"/>
      <point x="615" y="330" type="curve" smooth="yes"/>
      <point x="629" y="416"/>
      <point x="579" y="462"/>
      <point x="505" y="462" type="curve" smooth="yes"/>
      <point x="451" y="462"/>
      <point x="400" y="435"/>
      <point x="362" y="376" type="curve"/>
      <point x="341" y="376" type="line"/>
      <point x="314" y="437"/>
      <point x="265" y="462"/>
      <point x="213" y="462" type="curve" smooth="yes"/>
      <point x="143" y="462"/>
      <point x="93" y="417"/>
      <point x="80" y="344" type="curve" smooth="yes"/>
      <point x="66" y="259"/>
      <point x="114" y="212"/>
    </contour>
    <contour>
      <point x="196" y="264" type="curve" smooth="yes"/>
      <point x="151" y="264"/>
      <point x="127" y="292"/>
      <point x="134" y="337" type="curve" smooth="yes"/>
      <point x="136" y="345" type="line" smooth="yes"/>
      <point x="143" y="389"/>
      <point x="168" y="410"/>
      <point x="213" y="410" type="curve" smooth="yes"/>
      <point x="260" y="410"/>
      <point x="296" y="385"/>
      <point x="326" y="337" type="curve"/>
      <point x="288" y="289"/>
      <point x="243" y="264"/>
    </contour>
    <contour>
      <point x="482" y="264" type="curve" smooth="yes"/>
      <point x="435" y="264"/>
      <point x="399" y="289"/>
      <point x="370" y="337" type="curve"/>
      <point x="407" y="385"/>
      <point x="452" y="410"/>
      <point x="499" y="410" type="curve" smooth="yes"/>
      <point x="544" y="410"/>
      <point x="568" y="383"/>
      <point x="561" y="337" type="curve" smooth="yes"/>
      <point x="559" y="329" type="line" smooth="yes"/>
      <point x="552" y="286"/>
      <point x="527" y="264"/>
    </contour>
  </outline>
</glyph>
<glyph name="integral" format="1">
  <advance width="331"/>
  <unicode hex="222B"/>
  <outline>
    <contour>
      <point x="-16" y="0" type="line"/>
      <point x="109" y="0" type="line" smooth="yes"/>
      <point x="136" y="0"/>
      <point x="152" y="14"/>
      <point x="156" y="40" type="curve" smooth="yes"/>
      <point x="256" y="637" type="line"/>
      <point x="365" y="637" type="line"/>
      <point x="374" y="690" type="line"/>
      <point x="249" y="690" type="line" smooth="yes"/>
      <point x="223" y="690"/>
      <point x="206" y="676"/>
      <point x="202" y="650" type="curve" smooth="yes"/>
      <point x="102" y="53" type="line"/>
      <point x="-7" y="53" type="line"/>
    </contour>
  </outline>
</glyph>
<glyph name="notequal" format="1">
  <advance width="474"/>
  <unicode hex="2260"/>
  <outline>
    <contour>
      <point x="109" y="135" type="line"/>
      <point x="161" y="135" type="line"/>
      <point x="391" y="539" type="line"/>
      <point x="340" y="539" type="line"/>
    </contour>
    <contour>
      <point x="62" y="394" type="line"/>
      <point x="457" y="394" type="line"/>
      <point x="466" y="444" type="line"/>
      <point x="71" y="444" type="line"/>
    </contour>
    <contour>
      <point x="34" y="230" type="line"/>
      <point x="429" y="230" type="line"/>
      <point x="438" y="280" type="line"/>
      <point x="43" y="280" type="line"/>
    </contour>
  </outline>
</glyph>
<glyph name="greaterequal" format="1">
  <advance width="474"/>
  <unicode hex="2265"/>
  <outline>
    <contour>
      <point x="28" y="173" type="line"/>
      <point x="449" y="334" type="line"/>
      <point x="462" y="410" type="line"/>
      <point x="94" y="571" type="line"/>
      <point x="85" y="518" type="line"/>
      <point x="402" y="386" type="line"/>
      <point x="398" y="364" type="line"/>
      <point x="37" y="231" type="line"/>
    </contour>
    <contour>
      <point x="2" y="24" type="line"/>
      <point x="397" y="24" type="line"/>
      <point x="406" y="75" type="line"/>
      <point x="11" y="75" type="line"/>
    </contour>
  </outline>
</glyph>
<glyph name="lozenge" format="1">
  <advance width="665"/>
  <unicode hex="25CA"/>
  <outline>
    <contour>
      <point x="252" y="0" type="line"/>
      <point x="325" y="0" type="line"/>
      <point x="626" y="339" type="line"/>
      <point x="441" y="690" type="line"/>
      <point x="368" y="690" type="line"/>
      <point x="65" y="351" type="line"/>
    </contour>
    <contour>
      <point x="285" y="62" type="line"/>
      <point x="136" y="345" type="line"/>
      <point x="386" y="628" type="line"/>
      <point x="408" y="628" type="line"/>
      <point x="555" y="345" type="line"/>
      <point x="307" y="62" type="line"/>
    </contour>
  </outline>
</glyph>
<glyph name="fi" format="1">
  <advance width="649"/>
  <unicode hex="FB01"/>
  <outline>
    <contour>
      <point x="202" y="647" type="curve" smooth="yes"/>
      <point x="93" y="0" type="line"/>
      <point x="154" y="0" type="line"/>
      <point x="261" y="639" type="line"/>
      <point x="411" y="639" type="line"/>
      <point x="420" y="690" type="line"/>
      <point x="251" y="690" type="line" smooth="yes"/>
      <point x="224" y="690"/>
      <point x="206" y="675"/>
    </contour>
    <contour>
      <point x="-6" y="0" type="line"/>
      <point x="289" y="0" type="line"/>
      <point x="298" y="51" type="line"/>
      <point x="3" y="51" type="line"/>
    </contour>
    <contour>
      <point x="69" y="483" type="line"/>
      <point x="385" y="483" type="line"/>
      <point x="394" y="534" type="line"/>
      <point x="77" y="534" type="line"/>
    </contour>
    <contour>
      <point x="450" y="0" type="line"/>
      <point x="512" y="0" type="line"/>
      <point x="602" y="534" type="line"/>
      <point x="446" y="534" type="line"/>
      <point x="437" y="483" type="line"/>
      <point x="531" y="483" type="line"/>
    </contour>
    <contour>
      <point x="542" y="615" type="line"/>
      <point x="622" y="615" type="line"/>
      <point x="635" y="690" type="line"/>
      <point x="555" y="690" type="line"/>
    </contour>
    <contour>
      <point x="361" y="534" type="line"/>
      <point x="352" y="483" type="line"/>
      <point x="459" y="483" type="line"/>
      <point x="468" y="534" type="line"/>
    </contour>
  </outline>
</glyph>
<glyph name="personalComputer" format="1">
  <advance width="884"/>
  <unicode hex="1F4BB"/>
  <outline>
    <contour>
      <point x="644" y="0" type="line"/>
      <point x="706" y="0" type="line"/>
      <point x="876" y="690" type="line"/>
      <point x="814" y="690" type="line"/>
    </contour>
    <contour>
      <point x="86" y="0" type="line"/>
      <point x="168" y="0" type="line"/>
      <point x="168" y="80" type="line"/>
      <point x="86" y="80" type="line"/>
    </contour>
    <contour>
      <point x="86" y="454" type="line"/>
      <point x="168" y="454" type="line"/>
      <point x="168" y="534" type="line"/>
      <point x="86" y="534" type="line"/>
    </contour>
    <contour>
      <point x="339" y="0" type="line"/>
      <point x="400" y="0" type="line"/>
      <point x="570" y="690" type="line"/>
      <point x="508" y="690" type="line"/>
    </contour>
  </outline>
</glyph>
<glyph name="A.ss03" format="1">
  <advance width="625"/>
  <outline>
    <contour>
      <point x="-13" y="0" type="line"/>
      <point x="57" y="0" type="line"/>
      <point x="365" y="633" type="line"/>
      <point x="387" y="633" type="line"/>
      <point x="483" y="0" type="line"/>
      <point x="548" y="0" type="line"/>
      <point x="441" y="690" type="line"/>
      <point x="326" y="690" type="line"/>
    </contour>
    <contour>
      <point x="113" y="188" type="line"/>
      <point x="486" y="188" type="line"/>
      <point x="480" y="238" type="line"/>
      <point x="135" y="238" type="line"/>
    </contour>
    <contour>
      <point x="548" y="0" type="move" name="ogonek"/>
    </contour>
    <contour>
      <point x="382" y="690" type="move" name="top"/>
    </contour>
  </outline>
</glyph>
<glyph name="Aogonek.ss03" format="1">
  <advance width="625"/>
  <outline>
    <contour>
      <point x="-13" y="0" type="line"/>
      <point x="57" y="0" type="line"/>
      <point x="365" y="633" type="line"/>
      <point x="387" y="633" type="line"/>
      <point x="483" y="0" type="line"/>
      <point x="548" y="0" type="line"/>
      <point x="441" y="690" type="line"/>
      <point x="326" y="690" type="line"/>
    </contour>
    <contour>
      <point x="113" y="188" type="line"/>
      <point x="486" y="188" type="line"/>
      <point x="480" y="238" type="line"/>
      <point x="135" y="238" type="line"/>
    </contour>
    <contour>
      <point x="447" y="-143" type="curve" smooth="yes"/>
      <point x="531" y="-143" type="line"/>
      <point x="538" y="-100" type="line"/>
      <point x="456" y="-100" type="line" smooth="yes"/>
      <point x="436" y="-100"/>
      <point x="426" y="-92"/>
      <point x="429" y="-75" type="curve" smooth="yes"/>
      <point x="433" y="-53"/>
      <point x="461" y="-34"/>
      <point x="548" y="0" type="curve"/>
      <point x="486" y="19" type="line"/>
      <point x="481" y="-11" type="line"/>
      <point x="413" y="-29"/>
      <point x="388" y="-45"/>
      <point x="382" y="-83" type="curve" smooth="yes"/>
      <point x="376" y="-119"/>
      <point x="398" y="-143"/>
    </contour>
    <contour>
      <point x="548" y="0" type="move" name="ogonek"/>
    </contour>
    <contour>
      <point x="382" y="690" type="move" name="top"/>
    </contour>
  </outline>
</glyph>
<glyph name="D.ss03" format="1">
  <advance width="679"/>
  <outline>
    <contour>
      <point x="56" y="0" type="line"/>
      <point x="309" y="0" type="line" smooth="yes"/>
      <point x="494" y="0"/>
      <point x="587" y="89"/>
      <point x="627" y="330" type="curve" smooth="yes"/>
      <point x="667" y="571"/>
      <point x="582" y="690"/>
      <point x="396" y="690" type="curve"/>
      <point x="172" y="690" type="line"/>
    </contour>
    <contour>
      <point x="310" y="53" type="curve" smooth="yes"/>
      <point x="128" y="53" type="line"/>
      <point x="227" y="637" type="line"/>
      <point x="384" y="637" type="line" smooth="yes"/>
      <point x="530" y="637"/>
      <point x="598" y="561"/>
      <point x="569" y="389" type="curve" smooth="yes"/>
      <point x="554" y="296" type="line" smooth="yes"/>
      <point x="524" y="124"/>
      <point x="456" y="53"/>
    </contour>
  </outline>
</glyph>
<glyph name="E.ss03" format="1">
  <advance width="598"/>
  <outline>
    <contour>
      <point x="513" y="494" type="line"/>
      <point x="569" y="494" type="line"/>
      <point x="602" y="690" type="line"/>
      <point x="171" y="690" type="line"/>
      <point x="55" y="0" type="line"/>
      <point x="490" y="0" type="line"/>
      <point x="524" y="200" type="line"/>
      <point x="468" y="200" type="line"/>
      <point x="443" y="53" type="line"/>
      <point x="128" y="53" type="line"/>
      <point x="174" y="327" type="line"/>
      <point x="445" y="327" type="line"/>
      <point x="453" y="377" type="line"/>
      <point x="183" y="377" type="line"/>
      <point x="226" y="637" type="line"/>
      <point x="537" y="637" type="line"/>
    </contour>
    <contour>
      <point x="490" y="0" type="move" name="ogonek"/>
    </contour>
    <contour>
      <point x="384" y="690" type="move" name="top"/>
    </contour>
  </outline>
</glyph>
<glyph name="Eth.ss03" format="1">
  <advance width="707"/>
  <note>
Eth
</note>
  <outline>
    <contour>
      <point x="46" y="327" type="line"/>
      <point x="394" y="327" type="line"/>
      <point x="402" y="377" type="line"/>
      <point x="55" y="377" type="line"/>
    </contour>
    <contour>
      <point x="83" y="0" type="line"/>
      <point x="336" y="0" type="line" smooth="yes"/>
      <point x="521" y="0"/>
      <point x="614" y="89"/>
      <point x="654" y="330" type="curve" smooth="yes"/>
      <point x="694" y="571"/>
      <point x="608" y="690"/>
      <point x="423" y="690" type="curve"/>
      <point x="199" y="690" type="line"/>
    </contour>
    <contour>
      <point x="337" y="53" type="curve" smooth="yes"/>
      <point x="155" y="53" type="line"/>
      <point x="254" y="637" type="line"/>
      <point x="411" y="637" type="line" smooth="yes"/>
      <point x="557" y="637"/>
      <point x="625" y="561"/>
      <point x="596" y="389" type="curve" smooth="yes"/>
      <point x="580" y="296" type="line" smooth="yes"/>
      <point x="551" y="124"/>
      <point x="483" y="53"/>
    </contour>
  </outline>
</glyph>
<glyph name="Germandbls.ss03" format="1">
  <advance width="643"/>
  <outline>
    <contour>
      <point x="59" y="0" type="line"/>
      <point x="122" y="0" type="line"/>
      <point x="230" y="637" type="line"/>
      <point x="545" y="637" type="line"/>
      <point x="322" y="391" type="line"/>
      <point x="314" y="340" type="line"/>
      <point x="387" y="340" type="line" smooth="yes"/>
      <point x="476" y="340"/>
      <point x="522" y="293"/>
      <point x="509" y="209" type="curve" smooth="yes"/>
      <point x="503" y="176" type="line" smooth="yes"/>
      <point x="489" y="94"/>
      <point x="444" y="53"/>
      <point x="354" y="53" type="curve" smooth="yes"/>
      <point x="218" y="53" type="line"/>
      <point x="209" y="0" type="line"/>
      <point x="353" y="0" type="line" smooth="yes"/>
      <point x="477" y="0"/>
      <point x="549" y="58"/>
      <point x="569" y="182" type="curve" smooth="yes"/>
      <point x="590" y="306"/>
      <point x="523" y="390"/>
      <point x="402" y="390" type="curve" smooth="yes"/>
      <point x="356" y="390" type="line"/>
      <point x="382" y="368" type="line"/>
      <point x="627" y="637" type="line"/>
      <point x="636" y="690" type="line"/>
      <point x="175" y="690" type="line"/>
    </contour>
  </outline>
</glyph>
<glyph name="H.ss03" format="1">
  <advance width="671"/>
  <outline>
    <contour>
      <point x="461" y="0" type="line"/>
      <point x="525" y="0" type="line"/>
      <point x="641" y="690" type="line"/>
      <point x="577" y="690" type="line"/>
    </contour>
    <contour>
      <point x="56" y="0" type="line"/>
      <point x="120" y="0" type="line"/>
      <point x="236" y="690" type="line"/>
      <point x="172" y="690" type="line"/>
    </contour>
    <contour>
      <point x="142" y="327" type="line"/>
      <point x="547" y="327" type="line"/>
      <point x="556" y="377" type="line"/>
      <point x="150" y="377" type="line"/>
    </contour>
  </outline>
</glyph>
<glyph name="L.ss03" format="1">
  <advance width="568"/>
  <outline>
    <contour>
      <point x="55" y="0" type="line"/>
      <point x="476" y="0" type="line"/>
      <point x="510" y="200" type="line"/>
      <point x="454" y="200" type="line"/>
      <point x="429" y="53" type="line"/>
      <point x="128" y="53" type="line"/>
      <point x="235" y="690" type="line"/>
      <point x="171" y="690" type="line"/>
    </contour>
    <contour>
      <point x="210" y="690" type="line"/>
      <point x="201" y="637" type="line"/>
      <point x="317" y="637" type="line"/>
      <point x="326" y="690" type="line"/>
    </contour>
  </outline>
</glyph>
<glyph name="P.ss03" format="1">
  <advance width="605"/>
  <outline>
    <contour>
      <point x="57" y="0" type="line"/>
      <point x="121" y="0" type="line"/>
      <point x="171" y="300" type="line"/>
      <point x="391" y="300" type="line" smooth="yes"/>
      <point x="508" y="300"/>
      <point x="575" y="356"/>
      <point x="595" y="480" type="curve" smooth="yes"/>
      <point x="616" y="606"/>
      <point x="553" y="690"/>
      <point x="435" y="690" type="curve" smooth="yes"/>
      <point x="173" y="690" type="line"/>
    </contour>
    <contour>
      <point x="391" y="350" type="curve" smooth="yes"/>
      <point x="180" y="350" type="line"/>
      <point x="228" y="637" type="line"/>
      <point x="423" y="637" type="line" smooth="yes"/>
      <point x="505" y="637"/>
      <point x="548" y="590"/>
      <point x="535" y="509" type="curve" smooth="yes"/>
      <point x="528" y="472" type="line" smooth="yes"/>
      <point x="515" y="392"/>
      <point x="473" y="350"/>
    </contour>
  </outline>
</glyph>
<glyph name="Thorn.ss03" format="1">
  <advance width="615"/>
  <note>
Thorn
</note>
  <outline>
    <contour>
      <point x="119" y="158" type="line"/>
      <point x="368" y="158" type="line" smooth="yes"/>
      <point x="484" y="158"/>
      <point x="551" y="214"/>
      <point x="571" y="338" type="curve" smooth="yes"/>
      <point x="592" y="463"/>
      <point x="528" y="546"/>
      <point x="411" y="546" type="curve" smooth="yes"/>
      <point x="178" y="546" type="line"/>
      <point x="170" y="495" type="line"/>
      <point x="399" y="495" type="line" smooth="yes"/>
      <point x="481" y="495"/>
      <point x="524" y="449"/>
      <point x="511" y="367" type="curve" smooth="yes"/>
      <point x="504" y="330" type="line" smooth="yes"/>
      <point x="491" y="250"/>
      <point x="449" y="209"/>
      <point x="367" y="209" type="curve" smooth="yes"/>
      <point x="126" y="209" type="line"/>
    </contour>
    <contour>
      <point x="57" y="0" type="line"/>
      <point x="121" y="0" type="line"/>
      <point x="237" y="690" type="line"/>
      <point x="173" y="690" type="line"/>
    </contour>
  </outline>
</glyph>
<glyph name="a.ss01" format="1">
  <advance width="615"/>
  <outline>
    <contour>
      <point x="238" y="-10" type="curve" smooth="yes"/>
      <point x="314" y="-10"/>
      <point x="361" y="22"/>
      <point x="402" y="93" type="curve"/>
      <point x="424" y="93" type="line"/>
      <point x="416" y="50" type="line" smooth="yes"/>
      <point x="410" y="18"/>
      <point x="425" y="0"/>
      <point x="458" y="0" type="curve" smooth="yes"/>
      <point x="536" y="0" type="line"/>
      <point x="545" y="51" type="line"/>
      <point x="466" y="51" type="line"/>
      <point x="547" y="534" type="line"/>
      <point x="497" y="534" type="line"/>
      <point x="481" y="441" type="line"/>
      <point x="460" y="441" type="line"/>
      <point x="429" y="512"/>
      <point x="376" y="544"/>
      <point x="297" y="544" type="curve" smooth="yes"/>
      <point x="169" y="544"/>
      <point x="88" y="460"/>
      <point x="58" y="281" type="curve" smooth="yes"/>
      <point x="27" y="101"/>
      <point x="97" y="-10"/>
    </contour>
    <contour>
      <point x="255" y="45" type="curve" smooth="yes"/>
      <point x="145" y="45"/>
      <point x="95" y="110"/>
      <point x="118" y="245" type="curve" smooth="yes"/>
      <point x="127" y="295" type="line" smooth="yes"/>
      <point x="149" y="429"/>
      <point x="197" y="489"/>
      <point x="307" y="489" type="curve" smooth="yes"/>
      <point x="417" y="489"/>
      <point x="467" y="424"/>
      <point x="444" y="289" type="curve" smooth="yes"/>
      <point x="435" y="239" type="line" smooth="yes"/>
      <point x="413" y="105"/>
      <point x="365" y="45"/>
    </contour>
    <contour>
      <point x="536" y="0" type="move" name="ogonek"/>
    </contour>
    <contour>
      <point x="326" y="534" type="move" name="top"/>
    </contour>
  </outline>
</glyph>
<glyph name="dieresiscomb.case" format="1">
  <advance width="0"/>
  <outline>
    <component base="dieresiscomb" xOffset="19" yOffset="116" identifier="82E6D2B1"/>
    <contour>
      <point x="264" y="650" type="move" name="_top"/>
    </contour>
  </outline>
</glyph>
<glyph name="exclamdown.case" format="1">
  <advance width="261"/>
  <outline>
    <contour>
      <point x="192" y="521" type="line"/>
      <point x="155" y="521" type="line"/>
      <point x="61" y="53" type="line"/>
      <point x="52" y="0" type="line"/>
      <point x="120" y="0" type="line"/>
      <point x="129" y="53" type="line"/>
    </contour>
    <contour>
      <point x="243" y="690" type="line"/>
      <point x="161" y="690" type="line"/>
      <point x="147" y="610" type="line"/>
      <point x="229" y="610" type="line"/>
    </contour>
  </outline>
</glyph>
<glyph name="f_f" format="1">
  <advance width="753"/>
  <outline>
    <contour>
      <point x="202" y="647" type="curve" smooth="yes"/>
      <point x="93" y="0" type="line"/>
      <point x="154" y="0" type="line"/>
      <point x="261" y="639" type="line"/>
      <point x="411" y="639" type="line"/>
      <point x="420" y="690" type="line"/>
      <point x="251" y="690" type="line" smooth="yes"/>
      <point x="224" y="690"/>
      <point x="206" y="675"/>
    </contour>
    <contour>
      <point x="-6" y="0" type="line"/>
      <point x="289" y="0" type="line"/>
      <point x="298" y="51" type="line"/>
      <point x="3" y="51" type="line"/>
    </contour>
    <contour>
      <point x="69" y="483" type="line"/>
      <point x="385" y="483" type="line"/>
      <point x="394" y="534" type="line"/>
      <point x="77" y="534" type="line"/>
    </contour>
    <contour>
      <point x="578" y="647" type="curve" smooth="yes"/>
      <point x="469" y="0" type="line"/>
      <point x="531" y="0" type="line"/>
      <point x="638" y="639" type="line"/>
      <point x="788" y="639" type="line"/>
      <point x="797" y="690" type="line"/>
      <point x="628" y="690" type="line" smooth="yes"/>
      <point x="601" y="690"/>
      <point x="583" y="675"/>
    </contour>
    <contour>
      <point x="371" y="0" type="line"/>
      <point x="666" y="0" type="line"/>
      <point x="675" y="51" type="line"/>
      <point x="380" y="51" type="line"/>
    </contour>
    <contour>
      <point x="445" y="483" type="line"/>
      <point x="762" y="483" type="line"/>
      <point x="771" y="534" type="line"/>
      <point x="454" y="534" type="line"/>
    </contour>
    <contour>
      <point x="318" y="483" type="line"/>
      <point x="520" y="483" type="line"/>
      <point x="529" y="534" type="line"/>
      <point x="327" y="534" type="line"/>
    </contour>
  </outline>
</glyph>
<glyph name="f_k" format="1">
  <advance width="949"/>
  <outline>
    <contour>
      <point x="202" y="647" type="curve" smooth="yes"/>
      <point x="93" y="0" type="line"/>
      <point x="154" y="0" type="line"/>
      <point x="261" y="639" type="line"/>
      <point x="411" y="639" type="line"/>
      <point x="420" y="690" type="line"/>
      <point x="251" y="690" type="line" smooth="yes"/>
      <point x="224" y="690"/>
      <point x="206" y="675"/>
    </contour>
    <contour>
      <point x="-6" y="0" type="line"/>
      <point x="289" y="0" type="line"/>
      <point x="298" y="51" type="line"/>
      <point x="3" y="51" type="line"/>
    </contour>
    <contour>
      <point x="69" y="483" type="line"/>
      <point x="385" y="483" type="line"/>
      <point x="394" y="534" type="line"/>
      <point x="77" y="534" type="line"/>
    </contour>
    <contour>
      <point x="421" y="0" type="line"/>
      <point x="483" y="0" type="line"/>
      <point x="525" y="252" type="line"/>
      <point x="611" y="252" type="line"/>
      <point x="771" y="0" type="line"/>
      <point x="886" y="0" type="line"/>
      <point x="895" y="51" type="line"/>
      <point x="815" y="51" type="line"/>
      <point x="651" y="307" type="line"/>
      <point x="656" y="257" type="line"/>
      <point x="957" y="534" type="line"/>
      <point x="870" y="534" type="line"/>
      <point x="620" y="300" type="line"/>
      <point x="534" y="300" type="line"/>
      <point x="599" y="690" type="line"/>
      <point x="458" y="690" type="line"/>
      <point x="449" y="639" type="line"/>
      <point x="529" y="639" type="line"/>
    </contour>
    <contour>
      <point x="382" y="690" type="line"/>
      <point x="373" y="639" type="line"/>
      <point x="493" y="639" type="line"/>
      <point x="502" y="690" type="line"/>
    </contour>
  </outline>
</glyph>
<glyph name="f_t" format="1">
  <advance width="743"/>
  <outline>
    <contour>
      <point x="202" y="647" type="curve" smooth="yes"/>
      <point x="93" y="0" type="line"/>
      <point x="154" y="0" type="line"/>
      <point x="261" y="639" type="line"/>
      <point x="411" y="639" type="line"/>
      <point x="420" y="690" type="line"/>
      <point x="251" y="690" type="line" smooth="yes"/>
      <point x="224" y="690"/>
      <point x="206" y="675"/>
    </contour>
    <contour>
      <point x="-6" y="0" type="line"/>
      <point x="289" y="0" type="line"/>
      <point x="298" y="51" type="line"/>
      <point x="3" y="51" type="line"/>
    </contour>
    <contour>
      <point x="69" y="483" type="line"/>
      <point x="385" y="483" type="line"/>
      <point x="394" y="534" type="line"/>
      <point x="77" y="534" type="line"/>
    </contour>
    <contour>
      <point x="509" y="0" type="curve" smooth="yes"/>
      <point x="662" y="0" type="line"/>
      <point x="671" y="51" type="line"/>
      <point x="529" y="51" type="line"/>
      <point x="627" y="641" type="line"/>
      <point x="591" y="641" type="line"/>
      <point x="548" y="534" type="line"/>
      <point x="467" y="51" type="line" smooth="yes"/>
      <point x="462" y="18"/>
      <point x="476" y="0"/>
    </contour>
    <contour>
      <point x="430" y="483" type="line"/>
      <point x="743" y="483" type="line"/>
      <point x="752" y="534" type="line"/>
      <point x="439" y="534" type="line"/>
    </contour>
    <contour>
      <point x="357" y="534" type="line"/>
      <point x="348" y="483" type="line"/>
      <point x="455" y="483" type="line"/>
      <point x="464" y="534" type="line"/>
    </contour>
  </outline>
</glyph>
<glyph name="g.ss02" format="1">
  <advance width="547"/>
  <outline>
    <contour>
      <point x="-8" y="-132" type="line"/>
      <point x="304" y="-132" type="line" smooth="yes"/>
      <point x="391" y="-132"/>
      <point x="442" y="-101"/>
      <point x="455" y="-29" type="curve" smooth="yes"/>
      <point x="467" y="39"/>
      <point x="430" y="84"/>
      <point x="349" y="84" type="curve" smooth="yes"/>
      <point x="155" y="84" type="line" smooth="yes"/>
      <point x="107" y="84"/>
      <point x="91" y="98"/>
      <point x="96" y="129" type="curve" smooth="yes"/>
      <point x="101" y="160"/>
      <point x="121" y="170"/>
      <point x="169" y="170" type="curve" smooth="yes"/>
      <point x="260" y="170" type="line" smooth="yes"/>
      <point x="391" y="170"/>
      <point x="466" y="225"/>
      <point x="486" y="343" type="curve" smooth="yes"/>
      <point x="507" y="464"/>
      <point x="439" y="536"/>
      <point x="311" y="543" type="curve" smooth="yes"/>
      <point x="181" y="551"/>
      <point x="94" y="488"/>
      <point x="73" y="368" type="curve" smooth="yes"/>
      <point x="60" y="295"/>
      <point x="76" y="234"/>
      <point x="126" y="204" type="curve"/>
      <point x="122" y="186" type="line"/>
      <point x="72" y="179"/>
      <point x="41" y="156"/>
      <point x="35" y="115" type="curve" smooth="yes"/>
      <point x="26" y="64"/>
      <point x="58" y="30"/>
      <point x="128" y="30" type="curve" smooth="yes"/>
      <point x="325" y="30" type="line" smooth="yes"/>
      <point x="380" y="30"/>
      <point x="398" y="13"/>
      <point x="391" y="-28" type="curve" smooth="yes"/>
      <point x="385" y="-68"/>
      <point x="362" y="-81"/>
      <point x="306" y="-81" type="curve" smooth="yes"/>
      <point x="0" y="-81" type="line"/>
    </contour>
    <contour>
      <point x="265" y="222" type="curve" smooth="yes"/>
      <point x="169" y="222"/>
      <point x="120" y="266"/>
      <point x="135" y="354" type="curve" smooth="yes"/>
      <point x="136" y="364" type="line" smooth="yes"/>
      <point x="151" y="452"/>
      <point x="198" y="490"/>
      <point x="294" y="490" type="curve" smooth="yes"/>
      <point x="390" y="490"/>
      <point x="439" y="447"/>
      <point x="424" y="359" type="curve" smooth="yes"/>
      <point x="422" y="348" type="line" smooth="yes"/>
      <point x="407" y="260"/>
      <point x="361" y="222"/>
    </contour>
    <contour>
      <point x="401" y="514" type="curve"/>
      <point x="419" y="492" type="line"/>
      <point x="423" y="521"/>
      <point x="437" y="534"/>
      <point x="461" y="534" type="curve" smooth="yes"/>
      <point x="549" y="534" type="line"/>
      <point x="557" y="585" type="line"/>
      <point x="484" y="585" type="line" smooth="yes"/>
      <point x="436" y="585"/>
      <point x="409" y="562"/>
    </contour>
  </outline>
</glyph>
<glyph name="questiondown.case" format="1">
  <advance width="543"/>
  <outline>
    <contour>
      <point x="339" y="430" type="curve" smooth="yes"/>
      <point x="351" y="521" type="line"/>
      <point x="314" y="521" type="line"/>
      <point x="299" y="452" type="line" smooth="yes"/>
      <point x="291" y="412"/>
      <point x="265" y="388"/>
      <point x="215" y="374" type="curve" smooth="yes"/>
      <point x="103" y="345"/>
      <point x="52" y="291"/>
      <point x="37" y="201" type="curve" smooth="yes"/>
      <point x="36" y="191" type="line" smooth="yes"/>
      <point x="13" y="58"/>
      <point x="115" y="-10"/>
      <point x="246" y="-10" type="curve" smooth="yes"/>
      <point x="378" y="-10"/>
      <point x="455" y="56"/>
      <point x="495" y="217" type="curve"/>
      <point x="431" y="217" type="line"/>
      <point x="430" y="209" type="line" smooth="yes"/>
      <point x="411" y="104"/>
      <point x="360" y="46"/>
      <point x="249" y="46" type="curve" smooth="yes"/>
      <point x="147" y="46"/>
      <point x="82" y="98"/>
      <point x="97" y="182" type="curve" smooth="yes"/>
      <point x="99" y="196" type="line" smooth="yes"/>
      <point x="110" y="257"/>
      <point x="147" y="295"/>
      <point x="234" y="320" type="curve" smooth="yes"/>
      <point x="300" y="341"/>
      <point x="331" y="374"/>
    </contour>
    <contour>
      <point x="402" y="690" type="line"/>
      <point x="320" y="690" type="line"/>
      <point x="306" y="610" type="line"/>
      <point x="388" y="610" type="line"/>
    </contour>
  </outline>
</glyph>
<glyph name="t_t" format="1">
  <advance width="730"/>
  <outline>
    <contour>
      <point x="132" y="0" type="curve" smooth="yes"/>
      <point x="285" y="0" type="line"/>
      <point x="293" y="51" type="line"/>
      <point x="151" y="51" type="line"/>
      <point x="250" y="641" type="line"/>
      <point x="214" y="641" type="line"/>
      <point x="170" y="534" type="line"/>
      <point x="90" y="51" type="line" smooth="yes"/>
      <point x="85" y="18"/>
      <point x="98" y="0"/>
    </contour>
    <contour>
      <point x="53" y="483" type="line"/>
      <point x="366" y="483" type="line"/>
      <point x="375" y="534" type="line"/>
      <point x="62" y="534" type="line"/>
    </contour>
    <contour>
      <point x="497" y="0" type="curve" smooth="yes"/>
      <point x="650" y="0" type="line"/>
      <point x="658" y="51" type="line"/>
      <point x="516" y="51" type="line"/>
      <point x="615" y="641" type="line"/>
      <point x="579" y="641" type="line"/>
      <point x="535" y="534" type="line"/>
      <point x="455" y="51" type="line" smooth="yes"/>
      <point x="450" y="18"/>
      <point x="464" y="0"/>
    </contour>
    <contour>
      <point x="418" y="483" type="line"/>
      <point x="731" y="483" type="line"/>
      <point x="740" y="534" type="line"/>
      <point x="427" y="534" type="line"/>
    </contour>
    <contour>
      <point x="214" y="534" type="line"/>
      <point x="205" y="483" type="line"/>
      <point x="544" y="483" type="line"/>
      <point x="553" y="534" type="line"/>
    </contour>
  </outline>
</glyph>
